<svg xmlns="http://www.w3.org/2000/svg" viewBox="0 0 1000 745.22"><defs><style>.cls-1{fill:#ebebeb;}.cls-2,.cls-7{fill:#e0e0e0;}.cls-3{fill:#f5f5f5;}.cls-4{fill:#e6e6e6;}.cls-5,.cls-6{fill:#f1f0f0;}.cls-6{stroke:#e0e0e0;stroke-width:2px;}.cls-21,.cls-22,.cls-29,.cls-30,.cls-6{stroke-linecap:round;stroke-linejoin:round;}.cls-12,.cls-17,.cls-24,.cls-7{opacity:0.2;}.cls-12,.cls-13,.cls-14,.cls-17,.cls-18,.cls-23,.cls-24,.cls-25,.cls-26,.cls-27,.cls-28,.cls-31,.cls-32,.cls-33,.cls-7{isolation:isolate;}.cls-27,.cls-8{fill:#f5c826;}.cls-9{fill:#5274b8;}.cls-10{fill:#d9e02c;}.cls-11{fill:#263238;}.cls-12,.cls-13,.cls-14,.cls-19,.cls-31,.cls-32,.cls-33{fill:#fff;}.cls-13{opacity:0.3;}.cls-14{opacity:0.6;}.cls-15{fill:#e4897b;}.cls-16,.cls-26,.cls-28{fill:#f5eb27;}.cls-18,.cls-31{opacity:0.1;}.cls-20{fill:#de5954;}.cls-21,.cls-22,.cls-29,.cls-30{fill:none;}.cls-21,.cls-22{stroke:#263238;}.cls-21{stroke-width:0.72px;}.cls-22{stroke-width:0.5px;}.cls-23,.cls-27,.cls-32{opacity:0.4;}.cls-25,.cls-28,.cls-33{opacity:0.5;}.cls-26{opacity:0.7;}.cls-29,.cls-30{stroke:#f5c826;stroke-width:0.75px;}.cls-30{stroke-dasharray:6.03 6.03;}</style></defs><g id="Layer_2" data-name="Layer 2"><g id="Layer_3" data-name="Layer 3"><rect class="cls-1" y="654.89" width="1000" height="0.5"/><rect class="cls-1" x="833.56" y="687.08" width="66.24" height="0.5"/><rect class="cls-1" x="645.05" y="692.51" width="17.39" height="0.5"/><rect class="cls-1" x="793.17" y="668.51" width="38.38" height="0.5"/><rect class="cls-1" x="104.92" y="671.87" width="86.39" height="0.5"/><rect class="cls-1" x="209.11" y="671.87" width="12.67" height="0.5"/><rect class="cls-1" x="262.94" y="680.32" width="187.35" height="0.5"/><path class="cls-1" d="M474,565.69H87.83a11.43,11.43,0,0,1-11.42-11.41V11.42A11.44,11.44,0,0,1,87.83,0H474a11.43,11.43,0,0,1,11.41,11.42V554.28A11.42,11.42,0,0,1,474,565.69ZM87.83.5A10.93,10.93,0,0,0,76.91,11.42V554.28a10.93,10.93,0,0,0,10.92,10.91H474a10.92,10.92,0,0,0,10.91-10.91V11.42A10.93,10.93,0,0,0,474,.5Z"/><path class="cls-1" d="M906.62,565.69H520.42A11.42,11.42,0,0,1,509,554.28V11.42A11.43,11.43,0,0,1,520.42,0h386.2A11.43,11.43,0,0,1,918,11.42V554.28A11.43,11.43,0,0,1,906.62,565.69ZM520.42.5a10.93,10.93,0,0,0-10.91,10.92V554.28a10.92,10.92,0,0,0,10.91,10.91h386.2a10.93,10.93,0,0,0,10.92-10.91V11.42A10.93,10.93,0,0,0,906.62.5Z"/><rect class="cls-2" x="406.28" y="124.45" width="484.56" height="467.08"/><rect class="cls-3" x="414.05" y="132.93" width="476.79" height="450.45"/><polygon class="cls-4" points="417.57 474.29 417.57 338.8 431.65 338.8 431.65 320.9 463.32 306.09 463.32 287.77 468.6 287.77 468.6 338.8 473.88 338.8 473.88 474.29 480.92 474.29 480.92 403.9 496.75 403.9 496.75 366.95 502.03 366.95 502.03 474.29 514.35 474.29 514.35 433.81 523.15 433.81 523.15 423.26 542.5 423.26 542.5 386.31 553.06 386.31 553.06 361.67 565.38 361.67 565.38 324.72 570.65 324.72 570.65 361.67 582.97 361.67 582.97 386.31 593.53 386.31 593.53 423.26 612.88 423.26 612.88 433.81 621.68 433.81 621.68 474.29 632.24 474.29 632.24 423.26 651.6 423.26 651.6 310.64 656.87 310.64 656.87 298.33 699.1 298.33 699.1 310.64 707.9 310.64 707.9 391.58 743.09 391.58 743.09 400.38 755.41 400.38 755.41 405.66 743.09 405.66 743.09 437.33 780.04 437.33 780.04 331.76 787.08 331.76 787.08 310.64 804.68 310.64 804.68 229.71 809.96 229.71 809.96 310.64 822.27 310.64 822.27 331.76 890.84 331.76 890.84 583.38 414.05 583.38 414.05 474.29 417.57 474.29"/><rect class="cls-5" x="849.22" y="337.28" width="4.99" height="4.99"/><rect class="cls-5" x="849.22" y="345.63" width="4.99" height="4.99"/><rect class="cls-5" x="849.22" y="379.07" width="4.99" height="4.99"/><rect class="cls-5" x="849.22" y="387.42" width="4.99" height="4.99"/><rect class="cls-5" x="849.22" y="395.78" width="4.99" height="4.99"/><rect class="cls-5" x="849.22" y="420.86" width="4.99" height="4.99"/><rect class="cls-5" x="849.22" y="429.21" width="4.99" height="4.99"/><rect class="cls-5" x="841.3" y="370.71" width="4.99" height="4.99"/><rect class="cls-5" x="841.3" y="379.07" width="4.99" height="4.99"/><rect class="cls-5" x="841.3" y="387.42" width="4.99" height="4.99"/><rect class="cls-5" x="841.3" y="395.78" width="4.99" height="4.99"/><rect class="cls-5" x="841.3" y="404.14" width="4.99" height="4.99"/><rect class="cls-5" x="841.3" y="420.86" width="4.99" height="4.99"/><rect class="cls-5" x="841.3" y="429.21" width="4.99" height="4.99"/><rect class="cls-5" x="833.38" y="337.28" width="4.99" height="4.99"/><rect class="cls-5" x="833.38" y="345.63" width="4.99" height="4.99"/><rect class="cls-5" x="833.38" y="353.99" width="4.99" height="4.99"/><rect class="cls-5" x="833.38" y="362.35" width="4.99" height="4.99"/><rect class="cls-5" x="833.38" y="370.71" width="4.99" height="4.99"/><rect class="cls-5" x="833.38" y="379.07" width="4.99" height="4.99"/><rect class="cls-5" x="833.38" y="387.42" width="4.99" height="4.99"/><rect class="cls-5" x="833.38" y="395.78" width="4.99" height="4.99"/><rect class="cls-5" x="833.38" y="404.14" width="4.99" height="4.99"/><rect class="cls-5" x="833.38" y="412.5" width="4.99" height="4.99"/><rect class="cls-5" x="833.38" y="429.21" width="4.99" height="4.99"/><rect class="cls-5" x="825.46" y="337.28" width="4.99" height="4.99"/><rect class="cls-5" x="825.46" y="345.63" width="4.99" height="4.99"/><rect class="cls-5" x="825.46" y="353.99" width="4.99" height="4.99"/><rect class="cls-5" x="825.46" y="362.35" width="4.99" height="4.99"/><rect class="cls-5" x="825.46" y="370.71" width="4.99" height="4.99"/><rect class="cls-5" x="825.46" y="379.07" width="4.99" height="4.99"/><rect class="cls-5" x="825.46" y="387.42" width="4.99" height="4.99"/><rect class="cls-5" x="825.46" y="462.65" width="4.99" height="4.99"/><rect class="cls-5" x="817.54" y="337.28" width="4.99" height="4.99"/><rect class="cls-5" x="817.54" y="345.63" width="4.99" height="4.99"/><rect class="cls-5" x="817.54" y="353.99" width="4.99" height="4.99"/><rect class="cls-5" x="817.54" y="362.35" width="4.99" height="4.99"/><rect class="cls-5" x="817.54" y="370.71" width="4.99" height="4.99"/><rect class="cls-5" x="817.54" y="379.07" width="4.99" height="4.99"/><rect class="cls-5" x="817.54" y="387.42" width="4.99" height="4.99"/><rect class="cls-5" x="817.54" y="395.78" width="4.99" height="4.99"/><rect class="cls-5" x="817.54" y="445.93" width="4.99" height="4.99"/><rect class="cls-5" x="817.54" y="454.29" width="4.99" height="4.99"/><rect class="cls-5" x="817.54" y="462.65" width="4.99" height="4.99"/><rect class="cls-5" x="817.54" y="471" width="4.99" height="4.99"/><rect class="cls-5" x="817.54" y="504.44" width="4.99" height="4.99"/><rect class="cls-5" x="809.62" y="337.28" width="4.99" height="4.99"/><rect class="cls-5" x="809.62" y="345.63" width="4.99" height="4.99"/><rect class="cls-5" x="809.62" y="353.99" width="4.99" height="4.99"/><rect class="cls-5" x="809.62" y="362.35" width="4.99" height="4.99"/><rect class="cls-5" x="809.62" y="370.71" width="4.99" height="4.99"/><rect class="cls-5" x="809.62" y="379.07" width="4.99" height="4.99"/><rect class="cls-5" x="809.62" y="387.42" width="4.99" height="4.99"/><rect class="cls-5" x="809.62" y="395.78" width="4.99" height="4.99"/><rect class="cls-5" x="809.62" y="404.14" width="4.99" height="4.99"/><rect class="cls-5" x="809.62" y="412.5" width="4.99" height="4.99"/><rect class="cls-5" x="809.62" y="437.57" width="4.99" height="4.99"/><rect class="cls-5" x="809.62" y="445.93" width="4.99" height="4.99"/><rect class="cls-5" x="809.62" y="454.29" width="4.99" height="4.99"/><rect class="cls-5" x="809.62" y="462.65" width="4.99" height="4.99"/><rect class="cls-5" x="809.62" y="471" width="4.99" height="4.99"/><rect class="cls-5" x="809.62" y="504.44" width="4.99" height="4.99"/><rect class="cls-5" x="801.71" y="337.28" width="4.99" height="4.99"/><rect class="cls-5" x="801.71" y="345.63" width="4.99" height="4.99"/><rect class="cls-5" x="801.71" y="353.99" width="4.99" height="4.99"/><rect class="cls-5" x="801.71" y="362.35" width="4.99" height="4.99"/><rect class="cls-5" x="801.71" y="370.71" width="4.99" height="4.99"/><rect class="cls-5" x="801.71" y="379.07" width="4.99" height="4.99"/><rect class="cls-5" x="801.71" y="387.42" width="4.99" height="4.99"/><rect class="cls-5" x="801.71" y="395.78" width="4.99" height="4.99"/><rect class="cls-5" x="801.71" y="404.14" width="4.99" height="4.99"/><rect class="cls-5" x="801.71" y="412.5" width="4.99" height="4.99"/><rect class="cls-5" x="801.71" y="420.86" width="4.99" height="4.99"/><rect class="cls-5" x="801.71" y="429.21" width="4.99" height="4.99"/><rect class="cls-5" x="801.71" y="437.57" width="4.99" height="4.99"/><rect class="cls-5" x="801.71" y="445.93" width="4.99" height="4.99"/><rect class="cls-5" x="801.71" y="454.29" width="4.99" height="4.99"/><rect class="cls-5" x="801.71" y="462.65" width="4.99" height="4.99"/><rect class="cls-5" x="801.71" y="471" width="4.99" height="4.99"/><rect class="cls-5" x="801.71" y="479.36" width="4.99" height="4.99"/><rect class="cls-5" x="793.79" y="337.28" width="4.99" height="4.99"/><rect class="cls-5" x="793.79" y="345.63" width="4.99" height="4.99"/><rect class="cls-5" x="793.79" y="353.99" width="4.99" height="4.99"/><rect class="cls-5" x="793.79" y="362.35" width="4.99" height="4.99"/><rect class="cls-5" x="793.79" y="370.71" width="4.99" height="4.99"/><rect class="cls-5" x="793.79" y="379.07" width="4.99" height="4.99"/><rect class="cls-5" x="793.79" y="387.42" width="4.99" height="4.99"/><rect class="cls-5" x="793.79" y="395.78" width="4.99" height="4.99"/><rect class="cls-5" x="793.79" y="404.14" width="4.99" height="4.99"/><rect class="cls-5" x="793.79" y="412.5" width="4.99" height="4.99"/><rect class="cls-5" x="793.79" y="437.57" width="4.99" height="4.99"/><rect class="cls-5" x="793.79" y="445.93" width="4.99" height="4.99"/><rect class="cls-5" x="793.79" y="454.29" width="4.99" height="4.99"/><rect class="cls-5" x="793.79" y="462.65" width="4.99" height="4.99"/><rect class="cls-5" x="785.87" y="337.28" width="4.99" height="4.99"/><rect class="cls-5" x="785.87" y="345.63" width="4.99" height="4.99"/><rect class="cls-5" x="785.87" y="353.99" width="4.99" height="4.99"/><rect class="cls-5" x="785.87" y="362.35" width="4.99" height="4.99"/><rect class="cls-5" x="785.87" y="370.71" width="4.99" height="4.99"/><rect class="cls-5" x="785.87" y="379.07" width="4.99" height="4.99"/><rect class="cls-5" x="785.87" y="387.42" width="4.99" height="4.99"/><rect class="cls-5" x="785.87" y="395.78" width="4.99" height="4.99"/><rect class="cls-5" x="785.87" y="404.14" width="4.99" height="4.99"/><rect class="cls-5" x="785.87" y="412.5" width="4.99" height="4.99"/><rect class="cls-5" x="785.87" y="437.57" width="4.99" height="4.99"/><rect class="cls-5" x="785.87" y="445.93" width="4.99" height="4.99"/><rect class="cls-5" x="785.87" y="454.29" width="4.99" height="4.99"/><rect class="cls-5" x="696.72" y="315.58" width="4.99" height="4.99"/><rect class="cls-5" x="696.72" y="323.93" width="4.99" height="4.99"/><rect class="cls-5" x="696.72" y="332.29" width="4.99" height="4.99"/><rect class="cls-5" x="696.72" y="340.65" width="4.99" height="4.99"/><rect class="cls-5" x="696.72" y="349.01" width="4.99" height="4.99"/><rect class="cls-5" x="696.72" y="357.37" width="4.99" height="4.99"/><rect class="cls-5" x="696.72" y="365.72" width="4.99" height="4.99"/><rect class="cls-5" x="696.72" y="374.08" width="4.99" height="4.99"/><rect class="cls-5" x="696.72" y="399.16" width="4.99" height="4.99"/><rect class="cls-5" x="696.72" y="407.51" width="4.99" height="4.99"/><rect class="cls-5" x="688.8" y="315.58" width="4.99" height="4.99"/><rect class="cls-5" x="688.8" y="323.93" width="4.99" height="4.99"/><rect class="cls-5" x="688.8" y="332.29" width="4.99" height="4.99"/><rect class="cls-5" x="688.8" y="340.65" width="4.99" height="4.99"/><rect class="cls-5" x="688.8" y="349.01" width="4.99" height="4.99"/><rect class="cls-5" x="688.8" y="357.37" width="4.99" height="4.99"/><rect class="cls-5" x="688.8" y="365.72" width="4.99" height="4.99"/><rect class="cls-5" x="688.8" y="374.08" width="4.99" height="4.99"/><rect class="cls-5" x="688.8" y="407.51" width="4.99" height="4.99"/><rect class="cls-5" x="680.88" y="315.58" width="4.99" height="4.99"/><rect class="cls-5" x="680.88" y="323.93" width="4.99" height="4.99"/><rect class="cls-5" x="680.88" y="332.29" width="4.99" height="4.99"/><rect class="cls-5" x="680.88" y="340.65" width="4.99" height="4.99"/><rect class="cls-5" x="680.88" y="349.01" width="4.99" height="4.99"/><rect class="cls-5" x="680.88" y="357.37" width="4.99" height="4.99"/><rect class="cls-5" x="680.88" y="365.72" width="4.99" height="4.99"/><rect class="cls-5" x="680.88" y="374.08" width="4.99" height="4.99"/><rect class="cls-5" x="672.96" y="315.58" width="4.99" height="4.99"/><rect class="cls-5" x="672.96" y="323.93" width="4.99" height="4.99"/><rect class="cls-5" x="672.96" y="332.29" width="4.99" height="4.99"/><rect class="cls-5" x="672.96" y="340.65" width="4.99" height="4.99"/><rect class="cls-5" x="672.96" y="349.01" width="4.99" height="4.99"/><rect class="cls-5" x="672.96" y="357.37" width="4.99" height="4.99"/><rect class="cls-5" x="672.96" y="374.08" width="4.99" height="4.99"/><rect class="cls-5" x="672.96" y="382.44" width="4.99" height="4.99"/><rect class="cls-5" x="672.96" y="407.51" width="4.99" height="4.99"/><rect class="cls-5" x="672.96" y="415.87" width="4.99" height="4.99"/><rect class="cls-5" x="672.96" y="424.23" width="4.99" height="4.99"/><rect class="cls-5" x="672.96" y="432.59" width="4.99" height="4.99"/><rect class="cls-5" x="672.96" y="440.94" width="4.99" height="4.99"/><rect class="cls-5" x="672.96" y="449.3" width="4.99" height="4.99"/><rect class="cls-5" x="672.96" y="457.66" width="4.99" height="4.99"/><rect class="cls-5" x="665.05" y="315.58" width="4.99" height="4.99"/><rect class="cls-5" x="665.05" y="323.93" width="4.99" height="4.99"/><rect class="cls-5" x="665.05" y="332.29" width="4.99" height="4.99"/><rect class="cls-5" x="665.05" y="340.65" width="4.99" height="4.99"/><rect class="cls-5" x="665.05" y="349.01" width="4.99" height="4.99"/><rect class="cls-5" x="665.05" y="357.37" width="4.99" height="4.99"/><rect class="cls-5" x="665.05" y="382.44" width="4.99" height="4.99"/><rect class="cls-5" x="665.05" y="390.8" width="4.99" height="4.99"/><rect class="cls-5" x="665.05" y="399.16" width="4.99" height="4.99"/><rect class="cls-5" x="665.05" y="407.51" width="4.99" height="4.99"/><rect class="cls-5" x="665.05" y="415.87" width="4.99" height="4.99"/><rect class="cls-5" x="665.05" y="424.23" width="4.99" height="4.99"/><rect class="cls-5" x="665.05" y="432.59" width="4.99" height="4.99"/><rect class="cls-5" x="665.05" y="440.94" width="4.99" height="4.99"/><rect class="cls-5" x="665.05" y="449.3" width="4.99" height="4.99"/><rect class="cls-5" x="665.05" y="457.66" width="4.99" height="4.99"/><rect class="cls-5" x="665.05" y="466.02" width="4.99" height="4.99"/><rect class="cls-5" x="665.05" y="482.73" width="4.99" height="4.99"/><rect class="cls-5" x="657.13" y="315.58" width="4.99" height="4.99"/><rect class="cls-5" x="657.13" y="323.93" width="4.99" height="4.99"/><rect class="cls-5" x="657.13" y="332.29" width="4.99" height="4.99"/><rect class="cls-5" x="657.13" y="340.65" width="4.99" height="4.99"/><rect class="cls-5" x="657.13" y="349.01" width="4.99" height="4.99"/><rect class="cls-5" x="657.13" y="357.37" width="4.99" height="4.99"/><rect class="cls-5" x="657.13" y="382.44" width="4.99" height="4.99"/><rect class="cls-5" x="657.13" y="390.8" width="4.99" height="4.99"/><rect class="cls-5" x="657.13" y="399.16" width="4.99" height="4.99"/><rect class="cls-5" x="657.13" y="407.51" width="4.99" height="4.99"/><rect class="cls-5" x="657.13" y="432.59" width="4.99" height="4.99"/><rect class="cls-5" x="657.13" y="440.94" width="4.99" height="4.99"/><rect class="cls-5" x="657.13" y="449.3" width="4.99" height="4.99"/><rect class="cls-5" x="657.13" y="457.66" width="4.99" height="4.99"/><rect class="cls-5" x="657.13" y="466.02" width="4.99" height="4.99"/><rect class="cls-5" x="657.13" y="482.73" width="4.99" height="4.99"/><rect class="cls-5" x="657.13" y="491.09" width="4.99" height="4.99"/><rect class="cls-5" x="585.28" y="393.29" width="4.99" height="4.99"/><rect class="cls-5" x="585.28" y="401.65" width="4.99" height="4.99"/><rect class="cls-5" x="585.28" y="410.01" width="4.99" height="4.99"/><rect class="cls-5" x="585.28" y="418.36" width="4.99" height="4.99"/><rect class="cls-5" x="585.28" y="426.72" width="4.99" height="4.99"/><rect class="cls-5" x="585.28" y="435.08" width="4.99" height="4.99"/><rect class="cls-5" x="585.28" y="443.44" width="4.99" height="4.99"/><rect class="cls-5" x="585.28" y="468.51" width="4.99" height="4.99"/><rect class="cls-5" x="585.28" y="476.87" width="4.99" height="4.99"/><rect class="cls-5" x="585.28" y="485.23" width="4.99" height="4.99"/><rect class="cls-5" x="577.36" y="393.29" width="4.99" height="4.99"/><rect class="cls-5" x="577.36" y="401.65" width="4.99" height="4.99"/><rect class="cls-5" x="577.36" y="410.01" width="4.99" height="4.99"/><rect class="cls-5" x="577.36" y="418.36" width="4.99" height="4.99"/><rect class="cls-5" x="577.36" y="426.72" width="4.99" height="4.99"/><rect class="cls-5" x="577.36" y="435.08" width="4.99" height="4.99"/><rect class="cls-5" x="577.36" y="443.44" width="4.99" height="4.99"/><rect class="cls-5" x="569.44" y="393.29" width="4.99" height="4.99"/><rect class="cls-5" x="569.44" y="401.65" width="4.99" height="4.99"/><rect class="cls-5" x="569.44" y="410.01" width="4.99" height="4.99"/><rect class="cls-5" x="569.44" y="418.36" width="4.99" height="4.99"/><rect class="cls-5" x="569.44" y="426.72" width="4.99" height="4.99"/><rect class="cls-5" x="569.44" y="435.08" width="4.99" height="4.99"/><rect class="cls-5" x="569.44" y="443.44" width="4.99" height="4.99"/><rect class="cls-5" x="561.53" y="393.29" width="4.99" height="4.99"/><rect class="cls-5" x="561.53" y="401.65" width="4.99" height="4.99"/><rect class="cls-5" x="561.53" y="410.01" width="4.99" height="4.99"/><rect class="cls-5" x="561.53" y="418.36" width="4.99" height="4.99"/><rect class="cls-5" x="561.53" y="426.72" width="4.99" height="4.99"/><rect class="cls-5" x="561.53" y="435.08" width="4.99" height="4.99"/><rect class="cls-5" x="561.53" y="443.44" width="4.99" height="4.99"/><rect class="cls-5" x="561.53" y="451.8" width="4.99" height="4.99"/><rect class="cls-5" x="561.53" y="460.15" width="4.99" height="4.99"/><rect class="cls-5" x="561.53" y="468.51" width="4.99" height="4.99"/><rect class="cls-5" x="561.53" y="476.87" width="4.99" height="4.99"/><rect class="cls-5" x="553.61" y="393.29" width="4.99" height="4.99"/><rect class="cls-5" x="553.61" y="401.65" width="4.99" height="4.99"/><rect class="cls-5" x="553.61" y="410.01" width="4.99" height="4.99"/><rect class="cls-5" x="553.61" y="418.36" width="4.99" height="4.99"/><rect class="cls-5" x="553.61" y="426.72" width="4.99" height="4.99"/><rect class="cls-5" x="553.61" y="435.08" width="4.99" height="4.99"/><rect class="cls-5" x="553.61" y="443.44" width="4.99" height="4.99"/><rect class="cls-5" x="553.61" y="451.8" width="4.99" height="4.99"/><rect class="cls-5" x="553.61" y="460.15" width="4.99" height="4.99"/><rect class="cls-5" x="553.61" y="468.51" width="4.99" height="4.99"/><rect class="cls-5" x="553.61" y="476.87" width="4.99" height="4.99"/><rect class="cls-5" x="553.61" y="485.23" width="4.99" height="4.99"/><rect class="cls-5" x="553.61" y="510.3" width="4.99" height="4.99"/><rect class="cls-5" x="553.61" y="518.66" width="4.99" height="4.99"/><rect class="cls-5" x="545.69" y="393.29" width="4.99" height="4.99"/><rect class="cls-5" x="545.69" y="401.65" width="4.99" height="4.99"/><rect class="cls-5" x="545.69" y="410.01" width="4.99" height="4.99"/><rect class="cls-5" x="545.69" y="435.08" width="4.99" height="4.99"/><rect class="cls-5" x="545.69" y="443.44" width="4.99" height="4.99"/><rect class="cls-5" x="545.69" y="451.8" width="4.99" height="4.99"/><rect class="cls-5" x="545.69" y="460.15" width="4.99" height="4.99"/><rect class="cls-5" x="545.69" y="468.51" width="4.99" height="4.99"/><rect class="cls-5" x="545.69" y="476.87" width="4.99" height="4.99"/><rect class="cls-5" x="545.69" y="485.23" width="4.99" height="4.99"/><rect class="cls-5" x="545.69" y="510.3" width="4.99" height="4.99"/><rect class="cls-5" x="545.69" y="518.66" width="4.99" height="4.99"/><rect class="cls-5" x="545.69" y="527.02" width="4.99" height="4.99"/><rect class="cls-5" x="462.7" y="343.14" width="4.99" height="4.99"/><rect class="cls-5" x="462.7" y="351.5" width="4.99" height="4.99"/><rect class="cls-5" x="462.7" y="359.86" width="4.99" height="4.99"/><rect class="cls-5" x="462.7" y="368.22" width="4.99" height="4.99"/><rect class="cls-5" x="462.7" y="376.57" width="4.99" height="4.99"/><rect class="cls-5" x="462.7" y="384.93" width="4.99" height="4.99"/><rect class="cls-5" x="462.7" y="393.29" width="4.99" height="4.99"/><rect class="cls-5" x="462.7" y="401.65" width="4.99" height="4.99"/><rect class="cls-5" x="462.7" y="410.01" width="4.99" height="4.99"/><rect class="cls-5" x="462.7" y="418.36" width="4.99" height="4.99"/><rect class="cls-5" x="462.7" y="426.72" width="4.99" height="4.99"/><rect class="cls-5" x="462.7" y="435.08" width="4.99" height="4.99"/><rect class="cls-5" x="462.7" y="443.44" width="4.99" height="4.99"/><rect class="cls-5" x="462.7" y="451.8" width="4.99" height="4.99"/><rect class="cls-5" x="462.7" y="460.15" width="4.99" height="4.99"/><rect class="cls-5" x="462.7" y="468.51" width="4.99" height="4.99"/><rect class="cls-5" x="462.7" y="476.87" width="4.99" height="4.99"/><rect class="cls-5" x="462.7" y="485.23" width="4.99" height="4.99"/><rect class="cls-5" x="462.7" y="493.59" width="4.99" height="4.99"/><rect class="cls-5" x="462.7" y="501.94" width="4.99" height="4.99"/><rect class="cls-5" x="462.7" y="510.3" width="4.99" height="4.99"/><rect class="cls-5" x="462.7" y="518.66" width="4.99" height="4.99"/><rect class="cls-5" x="462.7" y="527.02" width="4.99" height="4.99"/><rect class="cls-5" x="454.78" y="343.14" width="4.99" height="4.99"/><rect class="cls-5" x="454.78" y="351.5" width="4.99" height="4.99"/><rect class="cls-5" x="454.78" y="359.86" width="4.99" height="4.99"/><rect class="cls-5" x="454.78" y="368.22" width="4.99" height="4.99"/><rect class="cls-5" x="454.78" y="376.57" width="4.99" height="4.99"/><rect class="cls-5" x="454.78" y="384.93" width="4.99" height="4.99"/><rect class="cls-5" x="454.78" y="393.29" width="4.99" height="4.99"/><rect class="cls-5" x="454.78" y="401.65" width="4.99" height="4.99"/><rect class="cls-5" x="454.78" y="410.01" width="4.99" height="4.99"/><rect class="cls-5" x="454.78" y="418.36" width="4.99" height="4.99"/><rect class="cls-5" x="454.78" y="426.72" width="4.99" height="4.99"/><rect class="cls-5" x="454.78" y="435.08" width="4.99" height="4.99"/><rect class="cls-5" x="454.78" y="443.44" width="4.99" height="4.99"/><rect class="cls-5" x="454.78" y="451.8" width="4.99" height="4.99"/><rect class="cls-5" x="454.78" y="460.15" width="4.99" height="4.99"/><rect class="cls-5" x="454.78" y="468.51" width="4.99" height="4.99"/><rect class="cls-5" x="454.78" y="476.87" width="4.99" height="4.99"/><rect class="cls-5" x="454.78" y="485.23" width="4.99" height="4.99"/><rect class="cls-5" x="454.78" y="493.59" width="4.99" height="4.99"/><rect class="cls-5" x="446.86" y="343.14" width="4.99" height="4.99"/><rect class="cls-5" x="446.86" y="351.5" width="4.99" height="4.99"/><rect class="cls-5" x="446.86" y="359.86" width="4.99" height="4.99"/><rect class="cls-5" x="446.86" y="368.22" width="4.99" height="4.99"/><rect class="cls-5" x="446.86" y="376.57" width="4.99" height="4.99"/><rect class="cls-5" x="446.86" y="384.93" width="4.99" height="4.99"/><rect class="cls-5" x="446.86" y="393.29" width="4.99" height="4.99"/><rect class="cls-5" x="446.86" y="401.65" width="4.99" height="4.99"/><rect class="cls-5" x="446.86" y="410.01" width="4.99" height="4.99"/><rect class="cls-5" x="446.86" y="418.36" width="4.99" height="4.99"/><rect class="cls-5" x="446.86" y="426.72" width="4.99" height="4.99"/><rect class="cls-5" x="446.86" y="435.08" width="4.99" height="4.99"/><rect class="cls-5" x="446.86" y="443.44" width="4.99" height="4.99"/><rect class="cls-5" x="446.86" y="451.8" width="4.99" height="4.99"/><rect class="cls-5" x="446.86" y="460.15" width="4.99" height="4.99"/><rect class="cls-5" x="446.86" y="468.51" width="4.99" height="4.99"/><rect class="cls-5" x="446.86" y="476.87" width="4.99" height="4.99"/><rect class="cls-5" x="446.86" y="485.23" width="4.99" height="4.99"/><rect class="cls-5" x="446.86" y="493.59" width="4.99" height="4.99"/><rect class="cls-5" x="438.94" y="343.14" width="4.99" height="4.99"/><rect class="cls-5" x="438.94" y="351.5" width="4.99" height="4.99"/><rect class="cls-5" x="438.94" y="359.86" width="4.99" height="4.99"/><rect class="cls-5" x="438.94" y="368.22" width="4.99" height="4.99"/><rect class="cls-5" x="438.94" y="376.57" width="4.99" height="4.99"/><rect class="cls-5" x="438.94" y="384.93" width="4.99" height="4.99"/><rect class="cls-5" x="438.94" y="393.29" width="4.99" height="4.99"/><rect class="cls-5" x="438.94" y="401.65" width="4.99" height="4.99"/><rect class="cls-5" x="438.94" y="410.01" width="4.99" height="4.99"/><rect class="cls-5" x="438.94" y="418.36" width="4.99" height="4.99"/><rect class="cls-5" x="438.94" y="426.72" width="4.99" height="4.99"/><rect class="cls-5" x="438.94" y="435.08" width="4.99" height="4.99"/><rect class="cls-5" x="438.94" y="443.44" width="4.99" height="4.99"/><rect class="cls-5" x="438.94" y="451.8" width="4.99" height="4.99"/><rect class="cls-5" x="438.94" y="460.15" width="4.99" height="4.99"/><rect class="cls-5" x="431.02" y="343.14" width="4.99" height="4.99"/><rect class="cls-5" x="431.02" y="351.5" width="4.99" height="4.99"/><rect class="cls-5" x="431.02" y="359.86" width="4.99" height="4.99"/><rect class="cls-5" x="431.02" y="368.22" width="4.99" height="4.99"/><rect class="cls-5" x="431.02" y="376.57" width="4.99" height="4.99"/><rect class="cls-5" x="431.02" y="384.93" width="4.99" height="4.99"/><rect class="cls-5" x="431.02" y="393.29" width="4.99" height="4.99"/><rect class="cls-5" x="431.02" y="401.65" width="4.99" height="4.99"/><rect class="cls-5" x="431.02" y="410.01" width="4.99" height="4.99"/><rect class="cls-5" x="431.02" y="418.36" width="4.99" height="4.99"/><rect class="cls-5" x="431.02" y="426.72" width="4.99" height="4.99"/><rect class="cls-5" x="431.02" y="435.08" width="4.99" height="4.99"/><rect class="cls-5" x="431.02" y="443.44" width="4.99" height="4.99"/><rect class="cls-5" x="423.11" y="343.14" width="4.99" height="4.99"/><rect class="cls-5" x="423.11" y="351.5" width="4.99" height="4.99"/><rect class="cls-5" x="423.11" y="359.86" width="4.99" height="4.99"/><rect class="cls-5" x="423.11" y="368.22" width="4.99" height="4.99"/><rect class="cls-5" x="423.11" y="376.57" width="4.99" height="4.99"/><rect class="cls-5" x="423.11" y="384.93" width="4.99" height="4.99"/><rect class="cls-5" x="423.11" y="393.29" width="4.99" height="4.99"/><rect class="cls-5" x="423.11" y="401.65" width="4.99" height="4.99"/><rect class="cls-5" x="423.11" y="410.01" width="4.99" height="4.99"/><rect class="cls-5" x="423.11" y="418.36" width="4.99" height="4.99"/><rect class="cls-5" x="423.11" y="426.72" width="4.99" height="4.99"/><rect class="cls-5" x="423.11" y="435.08" width="4.99" height="4.99"/><rect class="cls-5" x="885.29" y="340.65" width="4.99" height="4.99"/><rect class="cls-5" x="885.29" y="349.01" width="4.99" height="4.99"/><rect class="cls-5" x="885.29" y="357.37" width="4.99" height="4.99"/><rect class="cls-5" x="885.29" y="365.72" width="4.99" height="4.99"/><rect class="cls-5" x="885.29" y="374.08" width="4.99" height="4.99"/><rect class="cls-5" x="885.29" y="382.44" width="4.99" height="4.99"/><rect class="cls-5" x="885.29" y="390.8" width="4.99" height="4.99"/><rect class="cls-5" x="885.29" y="399.16" width="4.99" height="4.99"/><rect class="cls-5" x="885.29" y="407.51" width="4.99" height="4.99"/><rect class="cls-5" x="885.29" y="415.87" width="4.99" height="4.99"/><rect class="cls-5" x="885.29" y="424.23" width="4.99" height="4.99"/><rect class="cls-5" x="885.29" y="432.59" width="4.99" height="4.99"/><rect class="cls-5" x="885.29" y="440.94" width="4.99" height="4.99"/><rect class="cls-5" x="885.29" y="449.3" width="4.99" height="4.99"/><rect class="cls-5" x="885.29" y="457.66" width="4.99" height="4.99"/><rect class="cls-5" x="885.29" y="466.02" width="4.99" height="4.99"/><rect class="cls-5" x="885.29" y="474.38" width="4.99" height="4.99"/><rect class="cls-5" x="885.29" y="491.09" width="4.99" height="4.99"/><rect class="cls-5" x="885.29" y="499.45" width="4.99" height="4.99"/><rect class="cls-5" x="885.29" y="507.81" width="4.99" height="4.99"/><rect class="cls-5" x="885.29" y="516.17" width="4.99" height="4.99"/><rect class="cls-5" x="885.29" y="524.52" width="4.99" height="4.99"/><rect class="cls-5" x="877.37" y="340.65" width="4.99" height="4.99"/><rect class="cls-5" x="877.37" y="349.01" width="4.99" height="4.99"/><rect class="cls-5" x="877.37" y="357.37" width="4.99" height="4.99"/><rect class="cls-5" x="877.37" y="365.72" width="4.99" height="4.99"/><rect class="cls-5" x="877.37" y="374.08" width="4.99" height="4.99"/><rect class="cls-5" x="877.37" y="382.44" width="4.99" height="4.99"/><rect class="cls-5" x="877.37" y="390.8" width="4.99" height="4.99"/><rect class="cls-5" x="877.37" y="399.16" width="4.99" height="4.99"/><rect class="cls-5" x="877.37" y="407.51" width="4.99" height="4.99"/><rect class="cls-5" x="877.37" y="415.87" width="4.99" height="4.99"/><rect class="cls-5" x="877.37" y="424.23" width="4.99" height="4.99"/><rect class="cls-5" x="877.37" y="432.59" width="4.99" height="4.99"/><rect class="cls-5" x="877.37" y="440.94" width="4.99" height="4.99"/><rect class="cls-5" x="877.37" y="449.3" width="4.99" height="4.99"/><rect class="cls-5" x="877.37" y="457.66" width="4.99" height="4.99"/><rect class="cls-5" x="877.37" y="466.02" width="4.99" height="4.99"/><rect class="cls-5" x="877.37" y="516.17" width="4.99" height="4.99"/><rect class="cls-5" x="877.37" y="524.52" width="4.99" height="4.99"/><rect class="cls-5" x="869.45" y="340.65" width="4.99" height="4.99"/><rect class="cls-5" x="869.45" y="349.01" width="4.99" height="4.99"/><rect class="cls-5" x="869.45" y="357.37" width="4.99" height="4.99"/><rect class="cls-5" x="869.45" y="365.72" width="4.99" height="4.99"/><rect class="cls-5" x="869.45" y="374.08" width="4.99" height="4.99"/><rect class="cls-5" x="869.45" y="382.44" width="4.99" height="4.99"/><rect class="cls-5" x="869.45" y="390.8" width="4.99" height="4.99"/><rect class="cls-5" x="869.45" y="399.16" width="4.99" height="4.99"/><rect class="cls-5" x="869.45" y="407.51" width="4.99" height="4.99"/><rect class="cls-5" x="869.45" y="415.87" width="4.99" height="4.99"/><rect class="cls-5" x="869.45" y="424.23" width="4.99" height="4.99"/><rect class="cls-5" x="869.45" y="432.59" width="4.99" height="4.99"/><rect class="cls-5" x="869.45" y="440.94" width="4.99" height="4.99"/><rect class="cls-5" x="869.45" y="449.3" width="4.99" height="4.99"/><rect class="cls-5" x="869.45" y="457.66" width="4.99" height="4.99"/><rect class="cls-5" x="869.45" y="466.02" width="4.99" height="4.99"/><rect class="cls-5" x="869.45" y="482.73" width="4.99" height="4.99"/><rect class="cls-5" x="869.45" y="491.09" width="4.99" height="4.99"/><rect class="cls-5" x="869.45" y="499.45" width="4.99" height="4.99"/><rect class="cls-5" x="869.45" y="507.81" width="4.99" height="4.99"/><rect class="cls-5" x="869.45" y="524.52" width="4.99" height="4.99"/><rect class="cls-5" x="731.32" y="399.16" width="4.99" height="4.99"/><rect class="cls-5" x="731.32" y="407.51" width="4.99" height="4.99"/><rect class="cls-5" x="731.32" y="415.87" width="4.99" height="4.99"/><rect class="cls-5" x="731.32" y="424.23" width="4.99" height="4.99"/><rect class="cls-5" x="731.32" y="432.59" width="4.99" height="4.99"/><rect class="cls-5" x="731.32" y="440.94" width="4.99" height="4.99"/><rect class="cls-5" x="731.32" y="449.3" width="4.99" height="4.99"/><rect class="cls-5" x="731.32" y="457.66" width="4.99" height="4.99"/><rect class="cls-5" x="731.32" y="466.02" width="4.99" height="4.99"/><rect class="cls-5" x="731.32" y="474.38" width="4.99" height="4.99"/><rect class="cls-5" x="731.32" y="482.73" width="4.99" height="4.99"/><rect class="cls-5" x="731.32" y="491.09" width="4.99" height="4.99"/><rect class="cls-5" x="731.32" y="499.45" width="4.99" height="4.99"/><rect class="cls-5" x="731.32" y="516.17" width="4.99" height="4.99"/><rect class="cls-5" x="731.32" y="524.52" width="4.99" height="4.99"/><rect class="cls-5" x="731.32" y="532.88" width="4.99" height="4.99"/><rect class="cls-5" x="731.32" y="541.24" width="4.99" height="4.99"/><rect class="cls-5" x="731.32" y="557.96" width="4.99" height="4.99"/><rect class="cls-5" x="731.32" y="566.31" width="4.99" height="4.99"/><rect class="cls-5" x="731.32" y="574.67" width="4.99" height="4.99"/><rect class="cls-5" x="723.41" y="399.16" width="4.99" height="4.99"/><rect class="cls-5" x="723.41" y="407.51" width="4.99" height="4.99"/><rect class="cls-5" x="723.41" y="415.87" width="4.99" height="4.99"/><rect class="cls-5" x="723.41" y="424.23" width="4.99" height="4.99"/><rect class="cls-5" x="723.41" y="432.59" width="4.99" height="4.99"/><rect class="cls-5" x="723.41" y="440.94" width="4.99" height="4.99"/><rect class="cls-5" x="723.41" y="449.3" width="4.99" height="4.99"/><rect class="cls-5" x="723.41" y="457.66" width="4.99" height="4.99"/><rect class="cls-5" x="723.41" y="466.02" width="4.99" height="4.99"/><rect class="cls-5" x="723.41" y="474.38" width="4.99" height="4.99"/><rect class="cls-5" x="723.41" y="482.73" width="4.99" height="4.99"/><rect class="cls-5" x="723.41" y="491.09" width="4.99" height="4.99"/><rect class="cls-5" x="723.41" y="499.45" width="4.99" height="4.99"/><rect class="cls-5" x="723.41" y="524.52" width="4.99" height="4.99"/><rect class="cls-5" x="723.41" y="532.88" width="4.99" height="4.99"/><rect class="cls-5" x="723.41" y="549.6" width="4.99" height="4.99"/><rect class="cls-5" x="723.41" y="557.96" width="4.99" height="4.99"/><rect class="cls-5" x="723.41" y="566.31" width="4.99" height="4.99"/><rect class="cls-5" x="723.41" y="574.67" width="4.99" height="4.99"/><rect class="cls-5" x="715.49" y="399.16" width="4.99" height="4.99"/><rect class="cls-5" x="715.49" y="407.51" width="4.99" height="4.99"/><rect class="cls-5" x="715.49" y="415.87" width="4.99" height="4.99"/><rect class="cls-5" x="715.49" y="424.23" width="4.99" height="4.99"/><rect class="cls-5" x="715.49" y="432.59" width="4.99" height="4.99"/><rect class="cls-5" x="715.49" y="440.94" width="4.99" height="4.99"/><rect class="cls-5" x="715.49" y="449.3" width="4.99" height="4.99"/><rect class="cls-5" x="715.49" y="457.66" width="4.99" height="4.99"/><rect class="cls-5" x="715.49" y="466.02" width="4.99" height="4.99"/><rect class="cls-5" x="715.49" y="474.38" width="4.99" height="4.99"/><rect class="cls-5" x="715.49" y="482.73" width="4.99" height="4.99"/><rect class="cls-5" x="715.49" y="491.09" width="4.99" height="4.99"/><rect class="cls-5" x="715.49" y="499.45" width="4.99" height="4.99"/><rect class="cls-5" x="715.49" y="507.81" width="4.99" height="4.99"/><rect class="cls-5" x="715.49" y="524.52" width="4.99" height="4.99"/><rect class="cls-5" x="715.49" y="541.24" width="4.99" height="4.99"/><rect class="cls-5" x="715.49" y="549.6" width="4.99" height="4.99"/><rect class="cls-5" x="715.49" y="557.96" width="4.99" height="4.99"/><rect class="cls-5" x="715.49" y="566.31" width="4.99" height="4.99"/><rect class="cls-5" x="715.49" y="574.67" width="4.99" height="4.99"/><rect class="cls-5" x="763.58" y="446.81" width="4.99" height="4.99"/><rect class="cls-5" x="763.58" y="455.17" width="4.99" height="4.99"/><rect class="cls-5" x="763.58" y="463.53" width="4.99" height="4.99"/><rect class="cls-5" x="763.58" y="471.88" width="4.99" height="4.99"/><rect class="cls-5" x="763.58" y="480.24" width="4.99" height="4.99"/><rect class="cls-5" x="763.58" y="488.6" width="4.99" height="4.99"/><rect class="cls-5" x="763.58" y="513.67" width="4.99" height="4.99"/><rect class="cls-5" x="763.58" y="522.03" width="4.99" height="4.99"/><rect class="cls-5" x="763.58" y="530.39" width="4.99" height="4.99"/><rect class="cls-5" x="763.58" y="538.75" width="4.99" height="4.99"/><rect class="cls-5" x="763.58" y="547.11" width="4.99" height="4.99"/><rect class="cls-5" x="763.58" y="555.46" width="4.99" height="4.99"/><rect class="cls-5" x="763.58" y="563.82" width="4.99" height="4.99"/><rect class="cls-5" x="755.66" y="446.81" width="4.99" height="4.99"/><rect class="cls-5" x="755.66" y="455.17" width="4.99" height="4.99"/><rect class="cls-5" x="755.66" y="463.53" width="4.99" height="4.99"/><rect class="cls-5" x="755.66" y="471.88" width="4.99" height="4.99"/><rect class="cls-5" x="755.66" y="480.24" width="4.99" height="4.99"/><rect class="cls-5" x="755.66" y="488.6" width="4.99" height="4.99"/><rect class="cls-5" x="755.66" y="513.67" width="4.99" height="4.99"/><rect class="cls-5" x="755.66" y="522.03" width="4.99" height="4.99"/><rect class="cls-5" x="755.66" y="530.39" width="4.99" height="4.99"/><rect class="cls-5" x="755.66" y="538.75" width="4.99" height="4.99"/><rect class="cls-5" x="755.66" y="547.11" width="4.99" height="4.99"/><rect class="cls-5" x="755.66" y="555.46" width="4.99" height="4.99"/><rect class="cls-5" x="755.66" y="572.18" width="4.99" height="4.99"/><rect class="cls-5" x="492.61" y="410.01" width="4.99" height="4.99"/><rect class="cls-5" x="492.61" y="418.36" width="4.99" height="4.99"/><rect class="cls-5" x="492.61" y="426.72" width="4.99" height="4.99"/><rect class="cls-5" x="492.61" y="435.08" width="4.99" height="4.99"/><rect class="cls-5" x="492.61" y="443.44" width="4.99" height="4.99"/><rect class="cls-5" x="492.61" y="451.8" width="4.99" height="4.99"/><rect class="cls-5" x="492.61" y="460.15" width="4.99" height="4.99"/><rect class="cls-5" x="492.61" y="468.51" width="4.99" height="4.99"/><rect class="cls-5" x="492.61" y="476.87" width="4.99" height="4.99"/><rect class="cls-5" x="492.61" y="485.23" width="4.99" height="4.99"/><rect class="cls-5" x="492.61" y="493.59" width="4.99" height="4.99"/><rect class="cls-5" x="492.61" y="510.3" width="4.99" height="4.99"/><rect class="cls-5" x="492.61" y="518.66" width="4.99" height="4.99"/><rect class="cls-5" x="492.61" y="527.02" width="4.99" height="4.99"/><rect class="cls-5" x="492.61" y="535.38" width="4.99" height="4.99"/><rect class="cls-5" x="492.61" y="543.73" width="4.99" height="4.99"/><rect class="cls-5" x="492.61" y="552.09" width="4.99" height="4.99"/><rect class="cls-5" x="492.61" y="560.45" width="4.99" height="4.99"/><rect class="cls-5" x="492.61" y="568.81" width="4.99" height="4.99"/><rect class="cls-5" x="484.69" y="410.01" width="4.99" height="4.99"/><rect class="cls-5" x="484.69" y="418.36" width="4.99" height="4.99"/><rect class="cls-5" x="484.69" y="426.72" width="4.99" height="4.99"/><rect class="cls-5" x="484.69" y="435.08" width="4.99" height="4.99"/><rect class="cls-5" x="484.69" y="443.44" width="4.99" height="4.99"/><rect class="cls-5" x="484.69" y="451.8" width="4.99" height="4.99"/><rect class="cls-5" x="484.69" y="460.15" width="4.99" height="4.99"/><rect class="cls-5" x="484.69" y="468.51" width="4.99" height="4.99"/><rect class="cls-5" x="484.69" y="476.87" width="4.99" height="4.99"/><rect class="cls-5" x="484.69" y="485.23" width="4.99" height="4.99"/><rect class="cls-5" x="484.69" y="493.59" width="4.99" height="4.99"/><rect class="cls-5" x="484.69" y="501.94" width="4.99" height="4.99"/><rect class="cls-5" x="484.69" y="510.3" width="4.99" height="4.99"/><rect class="cls-5" x="484.69" y="518.66" width="4.99" height="4.99"/><rect class="cls-5" x="484.69" y="527.02" width="4.99" height="4.99"/><rect class="cls-5" x="484.69" y="535.38" width="4.99" height="4.99"/><rect class="cls-5" x="484.69" y="543.73" width="4.99" height="4.99"/><rect class="cls-5" x="484.69" y="552.09" width="4.99" height="4.99"/><rect class="cls-5" x="484.69" y="560.45" width="4.99" height="4.99"/><rect class="cls-5" x="484.69" y="568.81" width="4.99" height="4.99"/><rect class="cls-5" x="531.61" y="442.56" width="4.99" height="4.99"/><rect class="cls-5" x="531.61" y="450.92" width="4.99" height="4.99"/><rect class="cls-5" x="531.61" y="459.27" width="4.99" height="4.99"/><rect class="cls-5" x="531.61" y="467.63" width="4.99" height="4.99"/><rect class="cls-5" x="531.61" y="475.99" width="4.99" height="4.99"/><rect class="cls-5" x="531.61" y="484.35" width="4.99" height="4.99"/><rect class="cls-5" x="531.61" y="492.71" width="4.99" height="4.99"/><rect class="cls-5" x="531.61" y="501.06" width="4.99" height="4.99"/><rect class="cls-5" x="531.61" y="509.42" width="4.99" height="4.99"/><rect class="cls-5" x="531.61" y="517.78" width="4.99" height="4.99"/><rect class="cls-5" x="523.69" y="442.56" width="4.99" height="4.99"/><rect class="cls-5" x="523.69" y="450.92" width="4.99" height="4.99"/><rect class="cls-5" x="523.69" y="459.27" width="4.99" height="4.99"/><rect class="cls-5" x="523.69" y="467.63" width="4.99" height="4.99"/><rect class="cls-5" x="523.69" y="475.99" width="4.99" height="4.99"/><rect class="cls-5" x="523.69" y="484.35" width="4.99" height="4.99"/><rect class="cls-5" x="523.69" y="492.71" width="4.99" height="4.99"/><rect class="cls-5" x="523.69" y="501.06" width="4.99" height="4.99"/><rect class="cls-5" x="523.69" y="509.42" width="4.99" height="4.99"/><rect class="cls-2" x="567.43" y="125.37" width="8.37" height="466.15"/><rect class="cls-2" x="724.83" y="125.37" width="8.37" height="466.15"/><rect class="cls-2" x="882.24" y="125.37" width="8.37" height="466.15"/><path class="cls-5" d="M291.24,546.19h60.37a4.41,4.41,0,0,1,4.41,4.41V654.66a0,0,0,0,1,0,0H286.84a0,0,0,0,1,0,0V550.59A4.41,4.41,0,0,1,291.24,546.19Z"/><rect class="cls-4" x="286.84" y="560.85" width="69.18" height="7.77"/><path class="cls-2" d="M323.8,641.52h22a2.37,2.37,0,0,1,2.37,2.37v10.77a0,0,0,0,1,0,0H321.42a0,0,0,0,1,0,0V643.89A2.37,2.37,0,0,1,323.8,641.52Z"/><path class="cls-4" d="M348.24,654.66H329.07a3.08,3.08,0,0,1-3.07-3.08h0a3.08,3.08,0,0,1,3.07-3.07h19.17a3.08,3.08,0,0,1,3.08,3.07h0A3.08,3.08,0,0,1,348.24,654.66Z"/><circle class="cls-2" cx="644.6" cy="57.63" r="47.11" transform="translate(4 149.64) rotate(-13.28)"/><circle class="cls-5" cx="644.6" cy="57.63" r="40.05" transform="translate(-0.91 104) rotate(-9.22)"/><polyline class="cls-6" points="646.49 30.15 646.49 58.15 665.04 47.65"/><path class="cls-2" d="M193.86,517.38c-3.6-5.93-9.52-.78-9.52-.78.84-11.36-9.61-19.13-9.61-19.13s12.15,0,13.84-11.58-4.23-6.2-9.8-6.28-11.37,16.17-4,25.31,5.37,24.74-11.57,39.74a33.11,33.11,0,0,0-8.84,13.8c1.28-13.78,2-33.2-2-46.17-6.89-22,6.23-27.94,10-38.95s-10-20.33-10-20.33,13-5.93,6.66-12.7-19.48-5.86-19.48,3,8.89,12.24,8.89,12.24,10.16,10.59,10.16,16.09S148.34,489,148.34,489s4.66-10.14-4.66-10.57-12.28,11.84-8.47,17.35,10.17.85,10.17.85.74,11.85,2.91,19c1,3.17.5,15.59-.3,28.51A32.09,32.09,0,0,0,139.74,532c-16.94-15-18.9-30.61-11.57-39.74s1.52-25.39-4-25.31-11.49-5.32-9.79,6.27,13.83,11.59,13.83,11.59-10.45,7.77-9.6,19.13c0,0-5.93-5.16-9.53.77-6.42,10.59,8.47,17.15,11,11.94,0,0,31.59,22.36,24,54.54l1.77,2.62c-.23,2.6-.37,4.16-.37,4.16l2.47-1.06,2.81,4.15a94.9,94.9,0,0,0,.72,14l7.55-11.15c-7.62-32.18,24-54.54,24-54.54C185.39,534.53,200.29,528,193.86,517.38Z"/><path class="cls-7" d="M193.86,517.38c-3.6-5.93-9.52-.78-9.52-.78.84-11.36-9.61-19.13-9.61-19.13s12.15,0,13.84-11.58-4.23-6.2-9.8-6.28-11.37,16.17-4,25.31,5.37,24.74-11.57,39.74a33.11,33.11,0,0,0-8.84,13.8c1.28-13.78,2-33.2-2-46.17-6.89-22,6.23-27.94,10-38.95s-10-20.33-10-20.33,13-5.93,6.66-12.7-19.48-5.86-19.48,3,8.89,12.24,8.89,12.24,10.16,10.59,10.16,16.09S148.34,489,148.34,489s4.66-10.14-4.66-10.57-12.28,11.84-8.47,17.35,10.17.85,10.17.85.74,11.85,2.91,19c1,3.17.5,15.59-.3,28.51A32.09,32.09,0,0,0,139.74,532c-16.94-15-18.9-30.61-11.57-39.74s1.52-25.39-4-25.31-11.49-5.32-9.79,6.27,13.83,11.59,13.83,11.59-10.45,7.77-9.6,19.13c0,0-5.93-5.16-9.53.77-6.42,10.59,8.47,17.15,11,11.94,0,0,31.59,22.36,24,54.54l1.77,2.62c-.23,2.6-.37,4.16-.37,4.16l2.47-1.06,2.81,4.15a94.9,94.9,0,0,0,.72,14l7.55-11.15c-7.62-32.18,24-54.54,24-54.54C185.39,534.53,200.29,528,193.86,517.38Z"/><polygon class="cls-4" points="187.68 654.66 115.33 654.66 107.53 575.45 195.49 575.45 187.68 654.66"/><rect class="cls-5" x="103.67" y="566.71" width="95.69" height="17.48"/><ellipse id="_Path_" data-name="&lt;Path&gt;" class="cls-8" cx="500" cy="722.57" rx="387.78" ry="22.65"/><path class="cls-8" d="M820.89,659.53c.31-2,7.31-50.35-6.71-67a15.19,15.19,0,0,0-11.65-5.73c-28.3-.67-32.17,22.07-32.21,22.3l3.34.52c.13-.82,3.48-20.06,28.79-19.45a11.83,11.83,0,0,1,9.14,4.53c13,15.53,6,63.86,6,64.35Z"/><path class="cls-8" d="M822.61,657.33l3.37-.11c0-.44-1.12-44.5,20.59-53.6,21.27-8.91,30.84,9.41,31.24,10.2l3-1.52c-.11-.22-11.34-21.95-35.57-11.79C821.42,610.5,822.55,655.42,822.61,657.33Z"/><path class="cls-8" d="M822.51,660.79c0-.7.2-70.38,13.79-90.76,13-19.57,34.08-10.36,35-9.95l1.4-3.08c-.25-.11-24.53-10.83-39.18,11.16-14.15,21.22-14.36,89.72-14.36,92.63Z"/><path class="cls-9" d="M798.48,588.45s12.36,4.56,8.69,15.31-42.76,28.46-42.76,28.46-16.36-15-1.33-39.4S798.15,580.75,798.48,588.45Z"/><path class="cls-9" d="M836.91,566.36s-8.77-.94-8.07-6.29S863,541,882.66,563.22c0,0-12.62,21.67-30.86,22S836.91,566.36,836.91,566.36Z"/><path class="cls-9" d="M845.92,602.06s-6.06-4.89.47-7.27,38.61-1.71,38.94,30.05c0,0-37.35,6.21-42-5.89S845.92,602.06,845.92,602.06Z"/><path class="cls-8" d="M798.48,588.45s12.36,4.56,8.69,15.31-42.76,28.46-42.76,28.46-16.36-15-1.33-39.4S798.15,580.75,798.48,588.45Z"/><path class="cls-8" d="M836.91,566.36s-8.77-.94-8.07-6.29S863,541,882.66,563.22c0,0-12.62,21.67-30.86,22S836.91,566.36,836.91,566.36Z"/><path class="cls-8" d="M845.92,602.06s-6.06-4.89.47-7.27,38.61-1.71,38.94,30.05c0,0-37.35,6.21-42-5.89S845.92,602.06,845.92,602.06Z"/><polygon class="cls-9" points="791.84 724.24 849.8 724.24 856.05 660.79 785.59 660.79 791.84 724.24"/><polygon class="cls-10" points="791.84 724.24 849.8 724.24 856.05 660.79 785.59 660.79 791.84 724.24"/><rect class="cls-9" x="782.5" y="653.79" width="76.65" height="14" transform="translate(1641.64 1321.57) rotate(180)"/><rect class="cls-8" x="782.5" y="653.79" width="76.65" height="14" transform="translate(1641.64 1321.57) rotate(180)"/><path class="cls-11" d="M726.25,678.75l-57.63-5.66v-81H645.78v81l-57.85,5.68a11.23,11.23,0,0,0-10.13,11.17v8.65H736.37v-8.65A11.23,11.23,0,0,0,726.25,678.75Z"/><path class="cls-12" d="M726.25,678.75l-57.63-5.66v-81H645.78v81l-57.85,5.68a11.23,11.23,0,0,0-10.13,11.17v8.65H736.37v-8.65A11.23,11.23,0,0,0,726.25,678.75Z"/><circle class="cls-11" cx="583.9" cy="709.31" r="14.93"/><circle class="cls-11" cx="730.27" cy="709.31" r="14.93"/><path class="cls-11" d="M641.85,537.38h30.7a0,0,0,0,1,0,0v68a4.13,4.13,0,0,1-4.13,4.13H646a4.13,4.13,0,0,1-4.13-4.13v-68A0,0,0,0,1,641.85,537.38Z"/><path class="cls-13" d="M641.85,537.38h30.7a0,0,0,0,1,0,0v68a4.13,4.13,0,0,1-4.13,4.13H646a4.13,4.13,0,0,1-4.13-4.13v-68A0,0,0,0,1,641.85,537.38Z"/><path class="cls-11" d="M711.8,410.79s4.35,108-25.71,126.59h34.32s26.6-36.79,19.08-126.59Z"/><path class="cls-13" d="M711.8,410.79s4.35,108-25.71,126.59h34.32s26.6-36.79,19.08-126.59Z"/><path class="cls-11" d="M578.26,522.28H732.11a0,0,0,0,1,0,0v18.38a5,5,0,0,1-5,5H583.26a5,5,0,0,1-5-5V522.28A0,0,0,0,1,578.26,522.28Z" transform="translate(1310.37 1067.94) rotate(180)"/><rect class="cls-11" x="571.85" y="533.97" width="166.67" height="11.69" rx="2.01" transform="translate(1310.37 1079.63) rotate(180)"/><rect class="cls-14" x="571.85" y="533.97" width="166.67" height="11.69" rx="2.01" transform="translate(1310.37 1079.63) rotate(180)"/><rect class="cls-11" x="663.75" y="352.9" width="113.32" height="79.84" rx="14.58"/><path class="cls-15" d="M526.1,264.65l-11-28.94s4.7-4.35,1.48-8.77-23.48-16.85-27.18-14.67-11.88,10.43-7.45,15,24,12.2,24,12.2l9.7,38Z"/><path class="cls-16" d="M602.77,319.68S552.83,309.41,547.41,307s-25.52-61.33-25.52-61.33l-15.41,7.2s12.41,59.08,25.09,73.13,66.78,25.94,66.78,25.94Z"/><path class="cls-17" d="M598.34,351.89l-.91-.21c-2.73-.62-11.26-2.63-21.41-5.6C559.55,341.3,538.81,334,531.56,326c-12.66-14.06-25.08-73.14-25.08-73.14l15.4-7.19S542,304.52,547.42,307s55.35,12.71,55.35,12.71Z"/><polygon class="cls-16" points="522.13 244.48 525.32 250.61 505.52 257.43 506.28 249.93 522.13 244.48"/><path class="cls-11" d="M673.17,278.92s2.93,27.66-7.31,34.45-60.66-1.16-66.38-12.29,15.8-41.34,15.8-41.34Z"/><polygon class="cls-15" points="469.19 642.89 482.34 646.05 488.99 627.9 495.04 611.38 480.06 604.99 474.3 625.03 469.19 642.89"/><polygon class="cls-17" points="474.3 625.03 488.99 627.9 495.04 611.38 480.06 604.99 474.3 625.03"/><path class="cls-16" d="M475.62,615.45l18.24,6.78s48.66-121.66,58.66-122.08,111.82,46.38,137.34,20.42-11.38-88.48-11.38-88.48-61.38-8.76-66,5.1a97.21,97.21,0,0,0-2.6,12.44c-.7,4.24-1.18,7.8-1.18,7.8a.06.06,0,0,1,0,0c-1.9-.48-63.52-16.38-87.8,0C496.2,474.11,475.62,615.45,475.62,615.45Z"/><path class="cls-14" d="M475.62,615.45l18.24,6.78s48.66-121.66,58.66-122.08,111.82,46.38,137.34,20.42-11.38-88.48-11.38-88.48-61.38-8.76-66,5.1a97.21,97.21,0,0,0-2.6,12.44c-.7,4.24-1.18,7.8-1.18,7.8a.06.06,0,0,1,0,0c-1.9-.48-63.52-16.38-87.8,0C496.2,474.11,475.62,615.45,475.62,615.45Z"/><polygon class="cls-15" points="580.53 694.78 593.64 691.43 591.12 672.63 588.78 655.38 572.57 656.84 576.78 676.93 580.53 694.78"/><polygon class="cls-17" points="576.88 677.33 591.21 672.99 588.82 655.56 572.59 656.93 576.88 677.33"/><polygon class="cls-16" points="501.39 615.48 474.83 606.45 473.69 617.34 493.84 624.46 501.39 615.48"/><path class="cls-16" d="M645.78,526.81s-4.16.1-68.54-2.9c0,0,9.62,80.49,14.87,140.75l-19.25,3.28s-46-129-45.5-149.53,24-26.5,24-26.5S597.23,518.41,645.78,526.81Z"/><path class="cls-14" d="M645.78,526.81s-4.16.1-68.54-2.9c0,0,9.62,80.49,14.87,140.75l-19.25,3.28s-46-129-45.5-149.53,24-26.5,24-26.5S597.23,518.41,645.78,526.81Z"/><path class="cls-18" d="M645.78,526.81s-4.16.1-68.54-2.9c0,0,9.62,80.49,14.87,140.75l-19.25,3.28s-46-129-45.5-149.53,24-26.5,24-26.5S597.23,518.41,645.78,526.81Z"/><polygon class="cls-16" points="594.93 658.82 568.47 661.83 573.57 672.2 594.99 669.45 594.93 658.82"/><path class="cls-18" d="M608.7,457.43l35.9,7.48s-19.84-11-34.72-15.28C609.18,453.87,608.7,457.43,608.7,457.43Z"/><polygon class="cls-11" points="677 422.55 678.48 432.1 612.48 437.19 610.73 425.89 677 422.55"/><polygon class="cls-17" points="677 422.55 678.48 432.1 612.48 437.19 610.73 425.89 677 422.55"/><rect class="cls-16" x="655.33" y="421.71" width="3.28" height="16.7" transform="translate(1354.47 790.68) rotate(174.13)"/><rect class="cls-19" x="626.51" y="425.41" width="14.49" height="10.99" transform="translate(1293.83 820.28) rotate(176.32)"/><rect class="cls-16" x="614.8" y="423.5" width="3.28" height="16.7" transform="translate(1273.84 798.34) rotate(174.13)"/><rect class="cls-14" x="655.33" y="421.71" width="3.28" height="16.7" transform="translate(1354.47 790.68) rotate(174.13)"/><rect class="cls-14" x="614.8" y="423.5" width="3.28" height="16.7" transform="translate(1273.84 798.34) rotate(174.13)"/><path class="cls-16" d="M601.57,318.77a120.11,120.11,0,0,0,38,4.19c21.18-1.09,46.5,9.2,46.5,9.2L677,422.55l-66.27,3.34S588.46,350.41,601.57,318.77Z"/><path class="cls-11" d="M612.21,267.72s3.73-43.89,40.42-27.94c46,20,9.43,73.48-13.07,62.51S612.21,267.72,612.21,267.72Z"/><path class="cls-17" d="M622.5,325.41l1,24.81,8.23-11.67s-2.93,27.43-1.21,42.37c0,0,1.57-26.79,5.3-42.37l8.73,11.67,12.55-24.65S636.84,318.27,622.5,325.41Z"/><path class="cls-15" d="M633.86,330l19-5.36c-11.69-8.05-5.8-26-5.8-26l-18.79,6.61a57.79,57.79,0,0,1,2,8c2,11.72-3.33,12.66-3.33,12.66Z"/><path class="cls-17" d="M628.25,305.24a57.79,57.79,0,0,1,2,8c9-3.61,16.78-14.64,16.78-14.64Z"/><path class="cls-15" d="M640.51,249c-16.64-3.68-24,4-29,20.93-6.27,21.1-4.88,37.38,16.94,37.41C658.1,307.37,668.16,255.11,640.51,249Z"/><path class="cls-20" d="M622.49,271.37a36,36,0,0,1-6.37,5.83,4.69,4.69,0,0,0,4,2.86Z"/><path class="cls-11" d="M633,272.26c-.34,1.36.13,2.65,1,2.87s1.92-.7,2.25-2.06-.13-2.64-1-2.87S633.31,270.9,633,272.26Z"/><path class="cls-11" d="M635.59,270.36l-2.68-1.88S633.77,271.33,635.59,270.36Z"/><path class="cls-11" d="M616.14,267.82c-.34,1.36.13,2.65,1,2.87s1.92-.7,2.25-2.06-.13-2.65-1-2.87S616.47,266.46,616.14,267.82Z"/><path class="cls-11" d="M618.75,265.92,616.07,264S616.93,266.88,618.75,265.92Z"/><path class="cls-21" d="M635.69,260.81s4.81.42,6.66,4.11"/><path class="cls-21" d="M623.74,257.43s-2.69-1.74-6.93-.1"/><path class="cls-11" d="M652.5,281.07s-4.76-15.39-1.24-25.69c0,0-30-20.78-39,12.34,0,0,3.36-30.44,32.12-24.77s19.38,47.51,1.84,56.71C646.17,299.66,655.42,290.69,652.5,281.07Z"/><path class="cls-15" d="M649,284c.7-2.66,4.47-6.58,9.34-4.94,5,1.71,5.15,12.84-8.25,12.55C648.17,291.56,647.53,289.53,649,284Z"/><path class="cls-11" d="M617.11,286.38a42.88,42.88,0,0,1,.86,6.19c.37,0,.73.08,1.1.1,5,.42,7.41-1,8.62-2.76a6.47,6.47,0,0,0,1-2.86,6.16,6.16,0,0,0,0-1.74c-2.77,1.35-7.44,1.31-9.93,1.19C617.76,286.46,617.11,286.38,617.11,286.38Z"/><path class="cls-19" d="M618.8,286.5l.31,1.81c4.68.39,8,0,9.61-1.26a6.16,6.16,0,0,0,0-1.74C626,286.66,621.29,286.62,618.8,286.5Z"/><path class="cls-20" d="M619.07,292.67c5,.42,7.41-1,8.62-2.76a16.07,16.07,0,0,0-5.62.63A6,6,0,0,0,619.07,292.67Z"/><path class="cls-11" d="M640.58,250.33s.64,28.87,18,32.33-1.62-37.1-1.62-37.1-25.79-16.85-43-5-1.73,27.13-1.73,27.13S615.85,246.28,640.58,250.33Z"/><path class="cls-22" d="M641.18,248.42s-6.18,18.25,6,27.83"/><path class="cls-16" d="M663.6,288.6c-2.2,5.88-7.86,9.18-12.64,7.39s-6.86-8-4.65-13.88,7.86-9.18,12.64-7.38S665.81,282.73,663.6,288.6Z"/><path class="cls-23" d="M663.6,288.6c-2.2,5.88-7.86,9.18-12.64,7.39s-6.86-8-4.65-13.88,7.86-9.18,12.64-7.38S665.81,282.73,663.6,288.6Z"/><path class="cls-16" d="M658.09,279s7.17-32.14-8.93-40.57a46.66,46.66,0,0,1,5.44,1.06c2.08.61,14.94,13.64,8.44,42.53Z"/><path class="cls-17" d="M658.09,279s7.17-32.14-8.93-40.57a46.66,46.66,0,0,1,5.44,1.06c2.08.61,14.94,13.64,8.44,42.53Z"/><path class="cls-16" d="M627.9,297.37l-1.2-.18.32-2a36.74,36.74,0,0,0,25.39-5.39l1.18,1.61A37.82,37.82,0,0,1,627.9,297.37Z"/><g class="cls-24"><path d="M627.9,297.37l-1.2-.18.32-2a36.74,36.74,0,0,0,25.39-5.39l1.18,1.61A37.82,37.82,0,0,1,627.9,297.37Z"/></g><path class="cls-16" d="M662.93,287.8c-1.46,3.88-5.2,6.07-8.36,4.88s-4.54-5.29-3.08-9.17,5.2-6.07,8.36-4.88S664.38,283.92,662.93,287.8Z"/><path class="cls-16" d="M626.11,298l-1.6-.22a2.17,2.17,0,0,1-1.88-2.44h0a2.17,2.17,0,0,1,2.44-1.87l1.61.21a2.17,2.17,0,0,1,1.87,2.44h0A2.18,2.18,0,0,1,626.11,298Z"/><path class="cls-23" d="M626.11,298l-1.6-.22a2.17,2.17,0,0,1-1.88-2.44h0a2.17,2.17,0,0,1,2.44-1.87l1.61.21a2.17,2.17,0,0,1,1.87,2.44h0A2.18,2.18,0,0,1,626.11,298Z"/><polygon class="cls-16" points="647.75 317.79 635.87 329.46 640.62 343.76 657.15 325.57 647.75 317.79"/><polygon class="cls-16" points="630.57 320.23 632.49 329.21 626.33 341.92 622.5 325.41 630.57 320.23"/><path class="cls-15" d="M645.21,327.92l6.9-25.26s-3.35-6.29-2.62-7.61,4.31-18.27,6.87-20.12,13.09,1.31,14.16,3-10.09,24.7-10.09,24.7L656.36,330Z"/><path class="cls-16" d="M686.09,332.16c19,19.44-19.07,63.47-40.88,61.6s.54-81.73.54-81.73l14,2.3s-4.9,34.56-3.36,37.27S679.71,325.63,686.09,332.16Z"/><path class="cls-17" d="M686.09,332.16c19,19.44-19.07,63.47-40.88,61.6s.54-81.73.54-81.73l14,2.3s-4.9,34.56-3.36,37.27S679.71,325.63,686.09,332.16Z"/><polygon class="cls-16" points="644.6 309.48 642.53 316.07 661.99 317.79 661.99 312.03 644.6 309.48"/><rect class="cls-14" x="605.65" y="361.7" width="11.05" height="18.04" rx="0.79"/><rect class="cls-17" x="606.31" y="362.89" width="8.97" height="12.26"/><rect class="cls-11" x="610" y="357.35" width="1.98" height="7.23"/><path class="cls-10" d="M447.41,668.43a17.92,17.92,0,0,1,6.35-1.61h0s7.59-4.47,15.12-21.84l8.47-.05a7,7,0,0,1,6.5,4.66,3.87,3.87,0,0,1,.24,1.17,46.41,46.41,0,0,1-.65,6.1c-.76,6.33-4.95,19.92-4.95,19.92l-1.43-.37,2.61-12.63c.86-4.29-3.65-.15-5.74,4.18s-5.3,8.69-14.65,6.55C448.39,672,444,670.39,447.41,668.43Z"/><path class="cls-15" d="M470.41,640.43s-10.57,22.12-16.65,26.39c0,0,8.16,4.86,16.65-6,11-14,13.68-10.09,13.68-10.09a39.36,39.36,0,0,0-1.32-7.14C481.12,639.1,470.41,640.43,470.41,640.43Z"/><path class="cls-10" d="M563.85,721.14a18.26,18.26,0,0,1,5.79-3.08h0s6.31-6.14,9.51-24.8l8.21-2.06a7,7,0,0,1,7.43,3,4.28,4.28,0,0,1,.51,1.08,48,48,0,0,1,.81,6.08c.76,6.33-.08,20.52-.08,20.52h-1.48L594.09,709c-.18-4.38-3.58.72-4.58,5.42s-3.09,9.69-12.68,9.83C565.64,724.33,561,723.85,563.85,721.14Z"/><path class="cls-15" d="M579.56,688.48s-5,24-9.92,29.58c0,0,9.08,2.8,14.76-9.74,7.36-16.21,10.9-13.05,10.9-13.05a39.43,39.43,0,0,0-3-6.62C589.64,684.65,579.56,688.48,579.56,688.48Z"/><rect class="cls-16" x="685.56" y="204.39" width="90.09" height="50.14" rx="5.07"/><polygon class="cls-16" points="709.7 248.82 688.66 277.41 722.61 250.73 709.7 248.82"/><path class="cls-19" d="M710.49,229.46a3,3,0,1,1-3-3A2.95,2.95,0,0,1,710.49,229.46Z"/><path class="cls-19" d="M725.87,229.46a3,3,0,1,1-3-3A2.95,2.95,0,0,1,725.87,229.46Z"/><path class="cls-19" d="M741.24,229.46a3,3,0,1,1-3-3A2.95,2.95,0,0,1,741.24,229.46Z"/><path class="cls-19" d="M756.62,229.46a2.95,2.95,0,1,1-3-3A2.95,2.95,0,0,1,756.62,229.46Z"/><g class="cls-25"><rect class="cls-16" x="438.16" y="164.99" width="62.1" height="39.03" rx="1.38" transform="translate(143.6 -200.43) rotate(28.31)"/><rect class="cls-26" x="438.16" y="164.99" width="62.1" height="39.03" rx="1.38" transform="translate(143.6 -200.43) rotate(28.31)"/><path class="cls-8" d="M448.51,157.48l15.58,29.09a6.35,6.35,0,0,0,6.22,3.33l32.43-3.21-33,4.86a6.77,6.77,0,0,1-7.12-3.83Z"/></g><path class="cls-8" d="M410.68,152.06c.53-11.13,8.77-33.55,18.79-40.4s3.43,2.63,3.43,2.63,9.5-9.23,14.51-9,0,6.06,0,6.06,10.28-6.34,15-6.07,0,5.81,0,5.81,8.44-6.07,11.87-3.17-43.78,34-49.06,46.68S410.15,163.32,410.68,152.06Z"/><path class="cls-27" d="M410.68,152.06c.53-11.13,8.77-33.55,18.79-40.4s3.43,2.63,3.43,2.63,9.5-9.23,14.51-9,0,6.06,0,6.06,10.28-6.34,15-6.07,0,5.81,0,5.81,8.44-6.07,11.87-3.17-43.78,34-49.06,46.68S410.15,163.32,410.68,152.06Z"/><path class="cls-9" d="M451.23,150.42l6.31,4a.52.52,0,0,1-.32,1l-6.63-.52.57,5.09a.57.57,0,0,1-1,.44l-3.82-4.33Z"/><path class="cls-27" d="M451.23,150.42l6.31,4a.52.52,0,0,1-.32,1l-6.63-.52.57,5.09a.57.57,0,0,1-1,.44l-3.82-4.33Z"/><path class="cls-16" d="M362.75,125.37s8.7-6.07,21.89-2.11c0,0,3.79,17.41,14.16,23.21,5.69,3.19,19.64,2.91,30.67-.66,13.1-4.24,19.52-4.24,21.89.66,2.25,4.64-.26,10-10.28,12.39s-17.94,19.78-36.14,20-27.77-18-23.2-34A48.33,48.33,0,0,0,362.75,125.37Z"/><path class="cls-28" d="M362.75,125.37s8.7-6.07,21.89-2.11c0,0,3.79,17.41,14.16,23.21,5.69,3.19,19.64,2.91,30.67-.66,13.1-4.24,19.52-4.24,21.89.66,2.25,4.64-.26,10-10.28,12.39s-17.94,19.78-36.14,20-27.77-18-23.2-34A48.33,48.33,0,0,0,362.75,125.37Z"/><path class="cls-11" d="M446.35,149.77a.89.89,0,1,1-.89-.9A.89.89,0,0,1,446.35,149.77Z"/><path class="cls-9" d="M400.72,164.41c-10.75,2.93-34.61,2-44.23-5.4s1.45-4.07,1.45-4.07-11.71-6.18-13-11,5.77-1.87,5.77-1.87-9.21-7.83-10.42-12.43,5.52-1.79,5.52-1.79-8.37-6.16-6.67-10.31,45.87,31.14,59.54,32.25S411.6,161.45,400.72,164.41Z"/><path class="cls-8" d="M400.72,164.41c-10.75,2.93-34.61,2-44.23-5.4s1.45-4.07,1.45-4.07-11.71-6.18-13-11,5.77-1.87,5.77-1.87-9.21-7.83-10.42-12.43,5.52-1.79,5.52-1.79-8.37-6.16-6.67-10.31,45.87,31.14,59.54,32.25S411.6,161.45,400.72,164.41Z"/><path class="cls-29" d="M330.33,115c-.94-.33-1.89-.66-2.84-1"/><path class="cls-30" d="M321.72,112.29a151.72,151.72,0,0,0-30-5.05c-19.44-1.35-49.93-3.28-61.84,16.1C219,141,237.7,171.13,244.33,187.52c8.12,20.08,17.77,44.91,8.18,66.16-20.53,45.48-111.17,19-135.79-24.29"/><path class="cls-29" d="M115.3,226.72c-.45-.9-.87-1.8-1.26-2.72"/><rect class="cls-19" x="283.7" y="388.18" width="75.92" height="15.57"/><rect class="cls-18" x="283.7" y="388.18" width="75.92" height="15.57"/><rect class="cls-18" x="283.7" y="388.18" width="31.97" height="15.57"/><polygon class="cls-18" points="283.7 390.42 351.28 390.42 283.7 392.33 283.7 390.42"/><polygon class="cls-18" points="359.62 393.12 301.04 394.57 359.62 394.57 359.62 393.12"/><polygon class="cls-18" points="286.79 397.48 315.67 396.29 358.13 397.48 315.67 398.13 286.79 397.48"/><polygon class="cls-18" points="283.7 400.77 333.74 400.77 283.7 401.96 283.7 400.77"/><polygon class="cls-18" points="359.51 401.96 326.09 402.58 359.62 402.58 359.51 401.96"/><rect class="cls-19" x="273.13" y="372.61" width="75.92" height="15.57"/><rect class="cls-18" x="273.13" y="372.61" width="75.92" height="15.57"/><rect class="cls-18" x="273.13" y="372.61" width="31.97" height="15.57"/><polygon class="cls-18" points="273.13 374.85 340.71 374.85 273.13 376.76 273.13 374.85"/><polygon class="cls-18" points="349.05 377.55 290.47 379 349.05 379 349.05 377.55"/><polygon class="cls-18" points="276.23 381.91 305.11 380.72 347.57 381.91 305.11 382.56 276.23 381.91"/><polygon class="cls-18" points="273.13 385.2 323.17 385.2 273.13 386.39 273.13 385.2"/><polygon class="cls-18" points="348.94 386.39 315.53 387.01 349.05 387.01 348.94 386.39"/><rect class="cls-19" x="281.8" y="357.04" width="75.92" height="15.57"/><rect class="cls-18" x="281.8" y="357.04" width="75.92" height="15.57"/><rect class="cls-18" x="281.8" y="357.04" width="31.97" height="15.57"/><polygon class="cls-18" points="281.8 359.28 349.38 359.28 281.8 361.19 281.8 359.28"/><polygon class="cls-18" points="357.72 361.98 299.14 363.44 357.72 363.44 357.72 361.98"/><polygon class="cls-18" points="284.9 366.34 313.78 365.15 356.24 366.34 313.78 367 284.9 366.34"/><polygon class="cls-18" points="281.8 369.63 331.84 369.63 281.8 370.82 281.8 369.63"/><polygon class="cls-18" points="357.61 370.82 324.19 371.44 357.72 371.44 357.61 370.82"/><polygon class="cls-11" points="408.29 403.42 410.27 395.96 491.37 395.96 528.72 399.69 530.14 403.42 408.29 403.42"/><polygon class="cls-23" points="491.37 395.96 491.37 403.42 408.29 403.42 410.27 395.96 491.37 395.96"/><path class="cls-11" d="M475.08,360.25a6.39,6.39,0,0,1-6.44,7.14H344.4a8,8,0,0,1-7.78-7.14l-7.38-79.54a6.82,6.82,0,0,1,.16-2.32,6.35,6.35,0,0,1,6.28-4.82H459.92a8,8,0,0,1,7.78,7.14Z"/><path class="cls-23" d="M468.2,367.39H344.4a8,8,0,0,1-7.78-7.14l-7.38-79.54a6.82,6.82,0,0,1,.16-2.32H453.2a8,8,0,0,1,7.78,7.14l7.38,79.54A6.82,6.82,0,0,1,468.2,367.39Z"/><polygon class="cls-11" points="382.84 318.61 408.54 318.61 401.69 392.19 442.34 398.3 442.34 403.42 356.74 403.42 356.74 398.3 374.27 392.19 382.84 318.61"/><polygon class="cls-31" points="408.54 318.61 389.5 402.25 374.27 401.8 382.84 318.61 408.54 318.61"/><polygon class="cls-11" points="408.43 724.24 396.18 724.24 374.16 417.75 390.42 417.75 408.43 724.24"/><polygon class="cls-32" points="408.43 724.24 396.18 724.24 375.24 432.97 374.15 418.24 390.42 418.24 391.3 432.97 408.43 724.24"/><polygon class="cls-17" points="391.3 432.24 375.24 432.24 374.15 418.24 390.42 418.24 391.3 432.24"/><polygon class="cls-11" points="498.35 724.24 486.09 724.24 484.09 417.75 500.35 417.75 498.35 724.24"/><polygon class="cls-33" points="500.36 418.24 500.03 467.69 498.36 724.24 486.1 724.24 484.42 467.69 484.1 418.24 500.36 418.24"/><polygon class="cls-17" points="500.36 418.24 500.03 468.24 484.42 468.24 484.1 418.24 500.36 418.24"/><polygon class="cls-11" points="628.43 724.24 616.17 724.24 594.16 417.75 610.41 417.75 628.43 724.24"/><polygon class="cls-33" points="628.43 724.24 616.17 724.24 595.24 432.97 594.15 418.24 610.41 418.24 611.29 432.97 628.43 724.24"/><polygon class="cls-17" points="611.29 432.24 595.24 432.24 594.15 418.24 610.41 418.24 611.29 432.24"/><polygon class="cls-11" points="268.26 724.24 256.01 724.24 274.02 417.75 290.28 417.75 268.26 724.24"/><polygon class="cls-33" points="290.27 418.24 289.19 432.97 268.25 724.24 256.01 724.24 273.13 432.97 274.01 418.24 290.27 418.24"/><polygon class="cls-17" points="274.01 418.24 290.27 418.24 289.19 432.24 273.13 432.24 274.01 418.24"/><path class="cls-9" d="M261.14,410.07H623.3a0,0,0,0,1,0,0v13.19a2.16,2.16,0,0,1-2.16,2.16H263.3a2.16,2.16,0,0,1-2.16-2.16V410.07A0,0,0,0,1,261.14,410.07Z"/><path class="cls-14" d="M261.14,410.07H623.3a0,0,0,0,1,0,0v13.19a2.16,2.16,0,0,1-2.16,2.16H263.3a2.16,2.16,0,0,1-2.16-2.16V410.07A0,0,0,0,1,261.14,410.07Z"/><rect class="cls-17" x="261.14" y="410.07" width="362.16" height="7.68"/><path class="cls-9" d="M630.89,412.07H253.54a4.32,4.32,0,0,1-4.32-4.32h0a4.32,4.32,0,0,1,4.32-4.33H630.89a4.33,4.33,0,0,1,4.33,4.33h0A4.33,4.33,0,0,1,630.89,412.07Z"/><path class="cls-14" d="M630.89,412.07H253.54a4.32,4.32,0,0,1-4.32-4.32h0a4.32,4.32,0,0,1,4.32-4.33H630.89a4.33,4.33,0,0,1,4.33,4.33h0A4.33,4.33,0,0,1,630.89,412.07Z"/><path class="cls-9" d="M541.61,390.1l4.65-7a5,5,0,0,1,4.15-2.22h5.89a5.1,5.1,0,0,1,1.45.22l21,6.36a5,5,0,0,1,2.85,2.22l3,5.06Z"/><path class="cls-17" d="M584.58,394.78,554,391.46l-12.42-1.36,4.64-7a5,5,0,0,1,4.16-2.22h5.88a5.16,5.16,0,0,1,1.46.22l.46.14,20.5,6.22a5,5,0,0,1,2.86,2.22Z"/><path class="cls-17" d="M584.58,394.78,554,391.46l4.18-10.18,20.5,6.22a5,5,0,0,1,2.86,2.22Z"/><path class="cls-16" d="M599.1,402.76v.66H534.26l2.4-9.38a8.07,8.07,0,0,1,7.78-6H573.2a7.88,7.88,0,0,1,2.8.5l3.6,1.34,14.28,5.32A8.05,8.05,0,0,1,599.1,402.76Z"/><path class="cls-17" d="M599.1,402.76v.66H572.48l1.42-10.14a4.26,4.26,0,0,1,5.7-3.38l14.28,5.32A8.05,8.05,0,0,1,599.1,402.76Z"/><path class="cls-11" d="M576.62,396.53l8.47-25.42a1.88,1.88,0,0,1,2.65-1.07h0a1.87,1.87,0,0,1,1,2.15l-7.13,27.13S576.82,401.24,576.62,396.53Z"/><polygon class="cls-17" points="541.61 401.31 537.85 401.31 538.58 397.62 542.34 397.62 541.61 401.31"/><polygon class="cls-17" points="547.22 401.17 543.46 401.17 544.18 397.48 547.94 397.48 547.22 401.17"/></g></g></svg>