<svg id="Layer_1" data-name="Layer 1" xmlns="http://www.w3.org/2000/svg" viewBox="0 0 1000 745.22"><rect y="654.89" width="1000" height="0.5" fill="#ebebeb"/><rect x="833.56" y="687.08" width="66.24" height="0.5" fill="#ebebeb"/><rect x="645.05" y="692.51" width="17.39" height="0.5" fill="#ebebeb"/><rect x="793.17" y="668.51" width="38.38" height="0.5" fill="#ebebeb"/><rect x="104.92" y="671.87" width="86.39" height="0.5" fill="#ebebeb"/><rect x="209.11" y="671.87" width="12.67" height="0.5" fill="#ebebeb"/><rect x="262.94" y="680.32" width="187.35" height="0.5" fill="#ebebeb"/><path d="M474,693.09H87.83a11.44,11.44,0,0,1-11.42-11.42V138.81a11.44,11.44,0,0,1,11.42-11.42H474a11.43,11.43,0,0,1,11.41,11.42V681.67A11.43,11.43,0,0,1,474,693.09ZM87.83,127.89a10.93,10.93,0,0,0-10.92,10.92V681.67a10.93,10.93,0,0,0,10.92,10.92H474a10.93,10.93,0,0,0,10.91-10.92V138.81A10.93,10.93,0,0,0,474,127.89Z" transform="translate(0 -127.39)" fill="#ebebeb"/><path d="M906.62,693.09H520.42A11.43,11.43,0,0,1,509,681.67V138.81a11.43,11.43,0,0,1,11.41-11.42h386.2A11.43,11.43,0,0,1,918,138.81V681.67A11.44,11.44,0,0,1,906.62,693.09Zm-386.2-565.2a10.93,10.93,0,0,0-10.91,10.92V681.67a10.93,10.93,0,0,0,10.91,10.92h386.2a10.93,10.93,0,0,0,10.92-10.92V138.81a10.93,10.93,0,0,0-10.92-10.92Z" transform="translate(0 -127.39)" fill="#ebebeb"/><rect x="406.28" y="124.45" width="484.56" height="467.08" fill="#e0e0e0"/><rect x="414.05" y="132.93" width="476.79" height="450.45" fill="#f5f5f5"/><polygon points="417.57 474.29 417.57 338.8 431.65 338.8 431.65 320.9 463.32 306.09 463.32 287.77 468.6 287.77 468.6 338.8 473.88 338.8 473.88 474.29 480.92 474.29 480.92 403.9 496.75 403.9 496.75 366.95 502.03 366.95 502.03 474.29 514.35 474.29 514.35 433.81 523.15 433.81 523.15 423.26 542.5 423.26 542.5 386.31 553.06 386.31 553.06 361.67 565.38 361.67 565.38 324.72 570.65 324.72 570.65 361.67 582.97 361.67 582.97 386.31 593.53 386.31 593.53 423.26 612.88 423.26 612.88 433.81 621.68 433.81 621.68 474.29 632.24 474.29 632.24 423.26 651.6 423.26 651.6 310.64 656.87 310.64 656.87 298.33 699.1 298.33 699.1 310.64 707.9 310.64 707.9 391.58 743.09 391.58 743.09 400.38 755.41 400.38 755.41 405.66 743.09 405.66 743.09 437.33 780.04 437.33 780.04 331.76 787.08 331.76 787.08 310.64 804.68 310.64 804.68 229.71 809.96 229.71 809.96 310.64 822.27 310.64 822.27 331.76 890.84 331.76 890.84 583.38 414.05 583.38 414.05 474.29 417.57 474.29" fill="#e6e6e6"/><rect x="849.22" y="337.28" width="4.99" height="4.99" fill="#f1f0f0"/><rect x="849.22" y="345.63" width="4.99" height="4.99" fill="#f1f0f0"/><rect x="849.22" y="379.07" width="4.99" height="4.99" fill="#f1f0f0"/><rect x="849.22" y="387.42" width="4.99" height="4.99" fill="#f1f0f0"/><rect x="849.22" y="395.78" width="4.99" height="4.99" fill="#f1f0f0"/><rect x="849.22" y="420.86" width="4.99" height="4.99" fill="#f1f0f0"/><rect x="849.22" y="429.21" width="4.99" height="4.99" fill="#f1f0f0"/><rect x="841.3" y="370.71" width="4.99" height="4.99" fill="#f1f0f0"/><rect x="841.3" y="379.07" width="4.99" height="4.99" fill="#f1f0f0"/><rect x="841.3" y="387.42" width="4.99" height="4.99" fill="#f1f0f0"/><rect x="841.3" y="395.78" width="4.99" height="4.99" fill="#f1f0f0"/><rect x="841.3" y="404.14" width="4.99" height="4.99" fill="#f1f0f0"/><rect x="841.3" y="420.86" width="4.99" height="4.99" fill="#f1f0f0"/><rect x="841.3" y="429.21" width="4.99" height="4.99" fill="#f1f0f0"/><rect x="833.38" y="337.28" width="4.99" height="4.99" fill="#f1f0f0"/><rect x="833.38" y="345.63" width="4.99" height="4.99" fill="#f1f0f0"/><rect x="833.38" y="353.99" width="4.99" height="4.99" fill="#f1f0f0"/><rect x="833.38" y="362.35" width="4.99" height="4.99" fill="#f1f0f0"/><rect x="833.38" y="370.71" width="4.99" height="4.99" fill="#f1f0f0"/><rect x="833.38" y="379.07" width="4.99" height="4.99" fill="#f1f0f0"/><rect x="833.38" y="387.42" width="4.99" height="4.99" fill="#f1f0f0"/><rect x="833.38" y="395.78" width="4.99" height="4.99" fill="#f1f0f0"/><rect x="833.38" y="404.14" width="4.99" height="4.99" fill="#f1f0f0"/><rect x="833.38" y="412.5" width="4.99" height="4.99" fill="#f1f0f0"/><rect x="833.38" y="429.21" width="4.99" height="4.99" fill="#f1f0f0"/><rect x="825.46" y="337.28" width="4.99" height="4.99" fill="#f1f0f0"/><rect x="825.46" y="345.63" width="4.99" height="4.99" fill="#f1f0f0"/><rect x="825.46" y="353.99" width="4.99" height="4.99" fill="#f1f0f0"/><rect x="825.46" y="362.35" width="4.99" height="4.99" fill="#f1f0f0"/><rect x="825.46" y="370.71" width="4.99" height="4.99" fill="#f1f0f0"/><rect x="825.46" y="379.07" width="4.99" height="4.99" fill="#f1f0f0"/><rect x="825.46" y="387.42" width="4.99" height="4.99" fill="#f1f0f0"/><rect x="825.46" y="462.65" width="4.99" height="4.99" fill="#f1f0f0"/><rect x="817.54" y="337.28" width="4.99" height="4.99" fill="#f1f0f0"/><rect x="817.54" y="345.63" width="4.99" height="4.99" fill="#f1f0f0"/><rect x="817.54" y="353.99" width="4.99" height="4.99" fill="#f1f0f0"/><rect x="817.54" y="362.35" width="4.99" height="4.99" fill="#f1f0f0"/><rect x="817.54" y="370.71" width="4.99" height="4.99" fill="#f1f0f0"/><rect x="817.54" y="379.07" width="4.99" height="4.99" fill="#f1f0f0"/><rect x="817.54" y="387.42" width="4.99" height="4.99" fill="#f1f0f0"/><rect x="817.54" y="395.78" width="4.99" height="4.99" fill="#f1f0f0"/><rect x="817.54" y="445.93" width="4.99" height="4.99" fill="#f1f0f0"/><rect x="817.54" y="454.29" width="4.99" height="4.99" fill="#f1f0f0"/><rect x="817.54" y="462.65" width="4.99" height="4.99" fill="#f1f0f0"/><rect x="817.54" y="471" width="4.99" height="4.99" fill="#f1f0f0"/><rect x="817.54" y="504.44" width="4.99" height="4.99" fill="#f1f0f0"/><rect x="809.62" y="337.28" width="4.99" height="4.99" fill="#f1f0f0"/><rect x="809.62" y="345.63" width="4.99" height="4.99" fill="#f1f0f0"/><rect x="809.62" y="353.99" width="4.99" height="4.99" fill="#f1f0f0"/><rect x="809.62" y="362.35" width="4.99" height="4.99" fill="#f1f0f0"/><rect x="809.62" y="370.71" width="4.99" height="4.99" fill="#f1f0f0"/><rect x="809.62" y="379.07" width="4.99" height="4.99" fill="#f1f0f0"/><rect x="809.62" y="387.42" width="4.99" height="4.99" fill="#f1f0f0"/><rect x="809.62" y="395.78" width="4.99" height="4.99" fill="#f1f0f0"/><rect x="809.62" y="404.14" width="4.99" height="4.99" fill="#f1f0f0"/><rect x="809.62" y="412.5" width="4.99" height="4.99" fill="#f1f0f0"/><rect x="809.62" y="437.57" width="4.99" height="4.99" fill="#f1f0f0"/><rect x="809.62" y="445.93" width="4.99" height="4.99" fill="#f1f0f0"/><rect x="809.62" y="454.29" width="4.99" height="4.99" fill="#f1f0f0"/><rect x="809.62" y="462.65" width="4.99" height="4.99" fill="#f1f0f0"/><rect x="809.62" y="471" width="4.99" height="4.99" fill="#f1f0f0"/><rect x="809.62" y="504.44" width="4.99" height="4.99" fill="#f1f0f0"/><rect x="801.71" y="337.28" width="4.99" height="4.99" fill="#f1f0f0"/><rect x="801.71" y="345.63" width="4.99" height="4.99" fill="#f1f0f0"/><rect x="801.71" y="353.99" width="4.99" height="4.99" fill="#f1f0f0"/><rect x="801.71" y="362.35" width="4.99" height="4.99" fill="#f1f0f0"/><rect x="801.71" y="370.71" width="4.99" height="4.99" fill="#f1f0f0"/><rect x="801.71" y="379.07" width="4.99" height="4.99" fill="#f1f0f0"/><rect x="801.71" y="387.42" width="4.99" height="4.99" fill="#f1f0f0"/><rect x="801.71" y="395.78" width="4.99" height="4.99" fill="#f1f0f0"/><rect x="801.71" y="404.14" width="4.99" height="4.99" fill="#f1f0f0"/><rect x="801.71" y="412.5" width="4.99" height="4.99" fill="#f1f0f0"/><rect x="801.71" y="420.86" width="4.99" height="4.99" fill="#f1f0f0"/><rect x="801.71" y="429.21" width="4.99" height="4.99" fill="#f1f0f0"/><rect x="801.71" y="437.57" width="4.99" height="4.99" fill="#f1f0f0"/><rect x="801.71" y="445.93" width="4.99" height="4.99" fill="#f1f0f0"/><rect x="801.71" y="454.29" width="4.99" height="4.99" fill="#f1f0f0"/><rect x="801.71" y="462.65" width="4.99" height="4.99" fill="#f1f0f0"/><rect x="801.71" y="471" width="4.99" height="4.99" fill="#f1f0f0"/><rect x="801.71" y="479.36" width="4.99" height="4.99" fill="#f1f0f0"/><rect x="793.79" y="337.28" width="4.99" height="4.99" fill="#f1f0f0"/><rect x="793.79" y="345.63" width="4.99" height="4.99" fill="#f1f0f0"/><rect x="793.79" y="353.99" width="4.99" height="4.99" fill="#f1f0f0"/><rect x="793.79" y="362.35" width="4.99" height="4.99" fill="#f1f0f0"/><rect x="793.79" y="370.71" width="4.99" height="4.99" fill="#f1f0f0"/><rect x="793.79" y="379.07" width="4.99" height="4.99" fill="#f1f0f0"/><rect x="793.79" y="387.42" width="4.99" height="4.99" fill="#f1f0f0"/><rect x="793.79" y="395.78" width="4.99" height="4.99" fill="#f1f0f0"/><rect x="793.79" y="404.14" width="4.99" height="4.99" fill="#f1f0f0"/><rect x="793.79" y="412.5" width="4.99" height="4.99" fill="#f1f0f0"/><rect x="793.79" y="437.57" width="4.99" height="4.99" fill="#f1f0f0"/><rect x="793.79" y="445.93" width="4.99" height="4.99" fill="#f1f0f0"/><rect x="793.79" y="454.29" width="4.99" height="4.99" fill="#f1f0f0"/><rect x="793.79" y="462.65" width="4.99" height="4.99" fill="#f1f0f0"/><rect x="785.87" y="337.28" width="4.99" height="4.99" fill="#f1f0f0"/><rect x="785.87" y="345.63" width="4.99" height="4.99" fill="#f1f0f0"/><rect x="785.87" y="353.99" width="4.99" height="4.99" fill="#f1f0f0"/><rect x="785.87" y="362.35" width="4.99" height="4.99" fill="#f1f0f0"/><rect x="785.87" y="370.71" width="4.99" height="4.99" fill="#f1f0f0"/><rect x="785.87" y="379.07" width="4.99" height="4.99" fill="#f1f0f0"/><rect x="785.87" y="387.42" width="4.99" height="4.99" fill="#f1f0f0"/><rect x="785.87" y="395.78" width="4.99" height="4.99" fill="#f1f0f0"/><rect x="785.87" y="404.14" width="4.99" height="4.99" fill="#f1f0f0"/><rect x="785.87" y="412.5" width="4.99" height="4.99" fill="#f1f0f0"/><rect x="785.87" y="437.57" width="4.99" height="4.99" fill="#f1f0f0"/><rect x="785.87" y="445.93" width="4.99" height="4.99" fill="#f1f0f0"/><rect x="785.87" y="454.29" width="4.99" height="4.99" fill="#f1f0f0"/><rect x="696.72" y="315.58" width="4.99" height="4.99" fill="#f1f0f0"/><rect x="696.72" y="323.93" width="4.99" height="4.99" fill="#f1f0f0"/><rect x="696.72" y="332.29" width="4.99" height="4.99" fill="#f1f0f0"/><rect x="696.72" y="340.65" width="4.99" height="4.99" fill="#f1f0f0"/><rect x="696.72" y="349.01" width="4.99" height="4.99" fill="#f1f0f0"/><rect x="696.72" y="357.37" width="4.99" height="4.99" fill="#f1f0f0"/><rect x="696.72" y="365.72" width="4.99" height="4.99" fill="#f1f0f0"/><rect x="696.72" y="374.08" width="4.99" height="4.99" fill="#f1f0f0"/><rect x="696.72" y="399.16" width="4.99" height="4.99" fill="#f1f0f0"/><rect x="696.72" y="407.51" width="4.99" height="4.99" fill="#f1f0f0"/><rect x="688.8" y="315.58" width="4.99" height="4.99" fill="#f1f0f0"/><rect x="688.8" y="323.93" width="4.99" height="4.99" fill="#f1f0f0"/><rect x="688.8" y="332.29" width="4.99" height="4.99" fill="#f1f0f0"/><rect x="688.8" y="340.65" width="4.99" height="4.99" fill="#f1f0f0"/><rect x="688.8" y="349.01" width="4.99" height="4.99" fill="#f1f0f0"/><rect x="688.8" y="357.37" width="4.99" height="4.99" fill="#f1f0f0"/><rect x="688.8" y="365.72" width="4.99" height="4.99" fill="#f1f0f0"/><rect x="688.8" y="374.08" width="4.99" height="4.99" fill="#f1f0f0"/><rect x="688.8" y="407.51" width="4.99" height="4.99" fill="#f1f0f0"/><rect x="680.88" y="315.58" width="4.99" height="4.99" fill="#f1f0f0"/><rect x="680.88" y="323.93" width="4.99" height="4.99" fill="#f1f0f0"/><rect x="680.88" y="332.29" width="4.99" height="4.99" fill="#f1f0f0"/><rect x="680.88" y="340.65" width="4.99" height="4.99" fill="#f1f0f0"/><rect x="680.88" y="349.01" width="4.99" height="4.99" fill="#f1f0f0"/><rect x="680.88" y="357.37" width="4.99" height="4.99" fill="#f1f0f0"/><rect x="680.88" y="365.72" width="4.99" height="4.99" fill="#f1f0f0"/><rect x="680.88" y="374.08" width="4.99" height="4.99" fill="#f1f0f0"/><rect x="672.96" y="315.58" width="4.99" height="4.99" fill="#f1f0f0"/><rect x="672.96" y="323.93" width="4.99" height="4.99" fill="#f1f0f0"/><rect x="672.96" y="332.29" width="4.99" height="4.99" fill="#f1f0f0"/><rect x="672.96" y="340.65" width="4.99" height="4.99" fill="#f1f0f0"/><rect x="672.96" y="349.01" width="4.99" height="4.99" fill="#f1f0f0"/><rect x="672.96" y="357.37" width="4.99" height="4.99" fill="#f1f0f0"/><rect x="672.96" y="374.08" width="4.99" height="4.99" fill="#f1f0f0"/><rect x="672.96" y="382.44" width="4.99" height="4.99" fill="#f1f0f0"/><rect x="672.96" y="407.51" width="4.99" height="4.99" fill="#f1f0f0"/><rect x="672.96" y="415.87" width="4.99" height="4.99" fill="#f1f0f0"/><rect x="672.96" y="424.23" width="4.99" height="4.99" fill="#f1f0f0"/><rect x="672.96" y="432.59" width="4.99" height="4.99" fill="#f1f0f0"/><rect x="672.96" y="440.94" width="4.99" height="4.99" fill="#f1f0f0"/><rect x="672.96" y="449.3" width="4.99" height="4.99" fill="#f1f0f0"/><rect x="672.96" y="457.66" width="4.99" height="4.99" fill="#f1f0f0"/><rect x="665.05" y="315.58" width="4.99" height="4.99" fill="#f1f0f0"/><rect x="665.05" y="323.93" width="4.99" height="4.99" fill="#f1f0f0"/><rect x="665.05" y="332.29" width="4.99" height="4.99" fill="#f1f0f0"/><rect x="665.05" y="340.65" width="4.99" height="4.99" fill="#f1f0f0"/><rect x="665.05" y="349.01" width="4.99" height="4.99" fill="#f1f0f0"/><rect x="665.05" y="357.37" width="4.99" height="4.99" fill="#f1f0f0"/><rect x="665.05" y="382.44" width="4.99" height="4.99" fill="#f1f0f0"/><rect x="665.05" y="390.8" width="4.99" height="4.99" fill="#f1f0f0"/><rect x="665.05" y="399.16" width="4.99" height="4.99" fill="#f1f0f0"/><rect x="665.05" y="407.51" width="4.99" height="4.99" fill="#f1f0f0"/><rect x="665.05" y="415.87" width="4.99" height="4.99" fill="#f1f0f0"/><rect x="665.05" y="424.23" width="4.99" height="4.99" fill="#f1f0f0"/><rect x="665.05" y="432.59" width="4.99" height="4.99" fill="#f1f0f0"/><rect x="665.05" y="440.94" width="4.99" height="4.99" fill="#f1f0f0"/><rect x="665.05" y="449.3" width="4.99" height="4.99" fill="#f1f0f0"/><rect x="665.05" y="457.66" width="4.99" height="4.99" fill="#f1f0f0"/><rect x="665.05" y="466.02" width="4.99" height="4.99" fill="#f1f0f0"/><rect x="665.05" y="482.73" width="4.99" height="4.99" fill="#f1f0f0"/><rect x="657.13" y="315.58" width="4.99" height="4.99" fill="#f1f0f0"/><rect x="657.13" y="323.93" width="4.99" height="4.99" fill="#f1f0f0"/><rect x="657.13" y="332.29" width="4.99" height="4.99" fill="#f1f0f0"/><rect x="657.13" y="340.65" width="4.99" height="4.99" fill="#f1f0f0"/><rect x="657.13" y="349.01" width="4.99" height="4.99" fill="#f1f0f0"/><rect x="657.13" y="357.37" width="4.99" height="4.99" fill="#f1f0f0"/><rect x="657.13" y="382.44" width="4.99" height="4.99" fill="#f1f0f0"/><rect x="657.13" y="390.8" width="4.99" height="4.99" fill="#f1f0f0"/><rect x="657.13" y="399.16" width="4.99" height="4.99" fill="#f1f0f0"/><rect x="657.13" y="407.51" width="4.99" height="4.99" fill="#f1f0f0"/><rect x="657.13" y="432.59" width="4.99" height="4.99" fill="#f1f0f0"/><rect x="657.13" y="440.94" width="4.99" height="4.99" fill="#f1f0f0"/><rect x="657.13" y="449.3" width="4.99" height="4.99" fill="#f1f0f0"/><rect x="657.13" y="457.66" width="4.99" height="4.99" fill="#f1f0f0"/><rect x="657.13" y="466.02" width="4.99" height="4.99" fill="#f1f0f0"/><rect x="657.13" y="482.73" width="4.99" height="4.99" fill="#f1f0f0"/><rect x="657.13" y="491.09" width="4.99" height="4.99" fill="#f1f0f0"/><rect x="585.28" y="393.29" width="4.99" height="4.99" fill="#f1f0f0"/><rect x="585.28" y="401.65" width="4.99" height="4.99" fill="#f1f0f0"/><rect x="585.28" y="410.01" width="4.99" height="4.99" fill="#f1f0f0"/><rect x="585.28" y="418.36" width="4.99" height="4.99" fill="#f1f0f0"/><rect x="585.28" y="426.72" width="4.99" height="4.99" fill="#f1f0f0"/><rect x="585.28" y="435.08" width="4.99" height="4.99" fill="#f1f0f0"/><rect x="585.28" y="443.44" width="4.99" height="4.99" fill="#f1f0f0"/><rect x="585.28" y="468.51" width="4.99" height="4.99" fill="#f1f0f0"/><rect x="585.28" y="476.87" width="4.99" height="4.99" fill="#f1f0f0"/><rect x="585.28" y="485.23" width="4.99" height="4.99" fill="#f1f0f0"/><rect x="577.36" y="393.29" width="4.99" height="4.99" fill="#f1f0f0"/><rect x="577.36" y="401.65" width="4.99" height="4.99" fill="#f1f0f0"/><rect x="577.36" y="410.01" width="4.99" height="4.99" fill="#f1f0f0"/><rect x="577.36" y="418.36" width="4.99" height="4.99" fill="#f1f0f0"/><rect x="577.36" y="426.72" width="4.99" height="4.99" fill="#f1f0f0"/><rect x="577.36" y="435.08" width="4.99" height="4.99" fill="#f1f0f0"/><rect x="577.36" y="443.44" width="4.99" height="4.99" fill="#f1f0f0"/><rect x="569.44" y="393.29" width="4.99" height="4.99" fill="#f1f0f0"/><rect x="569.44" y="401.65" width="4.99" height="4.99" fill="#f1f0f0"/><rect x="569.44" y="410.01" width="4.99" height="4.99" fill="#f1f0f0"/><rect x="569.44" y="418.36" width="4.99" height="4.99" fill="#f1f0f0"/><rect x="569.44" y="426.72" width="4.99" height="4.99" fill="#f1f0f0"/><rect x="569.44" y="435.08" width="4.99" height="4.99" fill="#f1f0f0"/><rect x="569.44" y="443.44" width="4.99" height="4.99" fill="#f1f0f0"/><rect x="561.53" y="393.29" width="4.99" height="4.99" fill="#f1f0f0"/><rect x="561.53" y="401.65" width="4.99" height="4.99" fill="#f1f0f0"/><rect x="561.53" y="410.01" width="4.99" height="4.99" fill="#f1f0f0"/><rect x="561.53" y="418.36" width="4.99" height="4.99" fill="#f1f0f0"/><rect x="561.53" y="426.72" width="4.99" height="4.99" fill="#f1f0f0"/><rect x="561.53" y="435.08" width="4.99" height="4.99" fill="#f1f0f0"/><rect x="561.53" y="443.44" width="4.99" height="4.99" fill="#f1f0f0"/><rect x="561.53" y="451.8" width="4.99" height="4.99" fill="#f1f0f0"/><rect x="561.53" y="460.15" width="4.99" height="4.99" fill="#f1f0f0"/><rect x="561.53" y="468.51" width="4.99" height="4.99" fill="#f1f0f0"/><rect x="561.53" y="476.87" width="4.99" height="4.99" fill="#f1f0f0"/><rect x="553.61" y="393.29" width="4.99" height="4.99" fill="#f1f0f0"/><rect x="553.61" y="401.65" width="4.99" height="4.99" fill="#f1f0f0"/><rect x="553.61" y="410.01" width="4.99" height="4.99" fill="#f1f0f0"/><rect x="553.61" y="418.36" width="4.99" height="4.99" fill="#f1f0f0"/><rect x="553.61" y="426.72" width="4.99" height="4.99" fill="#f1f0f0"/><rect x="553.61" y="435.08" width="4.99" height="4.99" fill="#f1f0f0"/><rect x="553.61" y="443.44" width="4.99" height="4.99" fill="#f1f0f0"/><rect x="553.61" y="451.8" width="4.99" height="4.99" fill="#f1f0f0"/><rect x="553.61" y="460.15" width="4.99" height="4.99" fill="#f1f0f0"/><rect x="553.61" y="468.51" width="4.99" height="4.99" fill="#f1f0f0"/><rect x="553.61" y="476.87" width="4.99" height="4.99" fill="#f1f0f0"/><rect x="553.61" y="485.23" width="4.99" height="4.99" fill="#f1f0f0"/><rect x="553.61" y="510.3" width="4.99" height="4.99" fill="#f1f0f0"/><rect x="553.61" y="518.66" width="4.99" height="4.99" fill="#f1f0f0"/><rect x="545.69" y="393.29" width="4.99" height="4.99" fill="#f1f0f0"/><rect x="545.69" y="401.65" width="4.99" height="4.99" fill="#f1f0f0"/><rect x="545.69" y="410.01" width="4.99" height="4.99" fill="#f1f0f0"/><rect x="545.69" y="435.08" width="4.99" height="4.99" fill="#f1f0f0"/><rect x="545.69" y="443.44" width="4.99" height="4.99" fill="#f1f0f0"/><rect x="545.69" y="451.8" width="4.99" height="4.99" fill="#f1f0f0"/><rect x="545.69" y="460.15" width="4.99" height="4.99" fill="#f1f0f0"/><rect x="545.69" y="468.51" width="4.99" height="4.99" fill="#f1f0f0"/><rect x="545.69" y="476.87" width="4.99" height="4.99" fill="#f1f0f0"/><rect x="545.69" y="485.23" width="4.99" height="4.99" fill="#f1f0f0"/><rect x="545.69" y="510.3" width="4.99" height="4.99" fill="#f1f0f0"/><rect x="545.69" y="518.66" width="4.99" height="4.99" fill="#f1f0f0"/><rect x="545.69" y="527.02" width="4.99" height="4.99" fill="#f1f0f0"/><rect x="462.7" y="343.14" width="4.99" height="4.99" fill="#f1f0f0"/><rect x="462.7" y="351.5" width="4.99" height="4.99" fill="#f1f0f0"/><rect x="462.7" y="359.86" width="4.99" height="4.99" fill="#f1f0f0"/><rect x="462.7" y="368.22" width="4.99" height="4.99" fill="#f1f0f0"/><rect x="462.7" y="376.57" width="4.99" height="4.99" fill="#f1f0f0"/><rect x="462.7" y="384.93" width="4.99" height="4.99" fill="#f1f0f0"/><rect x="462.7" y="393.29" width="4.99" height="4.99" fill="#f1f0f0"/><rect x="462.7" y="401.65" width="4.99" height="4.99" fill="#f1f0f0"/><rect x="462.7" y="410.01" width="4.99" height="4.99" fill="#f1f0f0"/><rect x="462.7" y="418.36" width="4.99" height="4.99" fill="#f1f0f0"/><rect x="462.7" y="426.72" width="4.99" height="4.99" fill="#f1f0f0"/><rect x="462.7" y="435.08" width="4.99" height="4.99" fill="#f1f0f0"/><rect x="462.7" y="443.44" width="4.99" height="4.99" fill="#f1f0f0"/><rect x="462.7" y="451.8" width="4.99" height="4.99" fill="#f1f0f0"/><rect x="462.7" y="460.15" width="4.99" height="4.99" fill="#f1f0f0"/><rect x="462.7" y="468.51" width="4.99" height="4.99" fill="#f1f0f0"/><rect x="462.7" y="476.87" width="4.99" height="4.99" fill="#f1f0f0"/><rect x="462.7" y="485.23" width="4.99" height="4.99" fill="#f1f0f0"/><rect x="462.7" y="493.59" width="4.99" height="4.99" fill="#f1f0f0"/><rect x="462.7" y="501.94" width="4.99" height="4.99" fill="#f1f0f0"/><rect x="462.7" y="510.3" width="4.99" height="4.99" fill="#f1f0f0"/><rect x="462.7" y="518.66" width="4.99" height="4.99" fill="#f1f0f0"/><rect x="462.7" y="527.02" width="4.99" height="4.99" fill="#f1f0f0"/><rect x="454.78" y="343.14" width="4.99" height="4.99" fill="#f1f0f0"/><rect x="454.78" y="351.5" width="4.99" height="4.99" fill="#f1f0f0"/><rect x="454.78" y="359.86" width="4.99" height="4.99" fill="#f1f0f0"/><rect x="454.78" y="368.22" width="4.99" height="4.99" fill="#f1f0f0"/><rect x="454.78" y="376.57" width="4.99" height="4.99" fill="#f1f0f0"/><rect x="454.78" y="384.93" width="4.99" height="4.99" fill="#f1f0f0"/><rect x="454.78" y="393.29" width="4.99" height="4.99" fill="#f1f0f0"/><rect x="454.78" y="401.65" width="4.99" height="4.99" fill="#f1f0f0"/><rect x="454.78" y="410.01" width="4.99" height="4.99" fill="#f1f0f0"/><rect x="454.78" y="418.36" width="4.99" height="4.99" fill="#f1f0f0"/><rect x="454.78" y="426.72" width="4.99" height="4.99" fill="#f1f0f0"/><rect x="454.78" y="435.08" width="4.99" height="4.99" fill="#f1f0f0"/><rect x="454.78" y="443.44" width="4.99" height="4.99" fill="#f1f0f0"/><rect x="454.78" y="451.8" width="4.99" height="4.99" fill="#f1f0f0"/><rect x="454.78" y="460.15" width="4.99" height="4.99" fill="#f1f0f0"/><rect x="454.78" y="468.51" width="4.99" height="4.99" fill="#f1f0f0"/><rect x="454.78" y="476.87" width="4.99" height="4.99" fill="#f1f0f0"/><rect x="454.78" y="485.23" width="4.99" height="4.99" fill="#f1f0f0"/><rect x="454.78" y="493.59" width="4.99" height="4.99" fill="#f1f0f0"/><rect x="446.86" y="343.14" width="4.99" height="4.99" fill="#f1f0f0"/><rect x="446.86" y="351.5" width="4.99" height="4.99" fill="#f1f0f0"/><rect x="446.86" y="359.86" width="4.99" height="4.99" fill="#f1f0f0"/><rect x="446.86" y="368.22" width="4.99" height="4.99" fill="#f1f0f0"/><rect x="446.86" y="376.57" width="4.99" height="4.99" fill="#f1f0f0"/><rect x="446.86" y="384.93" width="4.99" height="4.99" fill="#f1f0f0"/><rect x="446.86" y="393.29" width="4.99" height="4.99" fill="#f1f0f0"/><rect x="446.86" y="401.65" width="4.99" height="4.99" fill="#f1f0f0"/><rect x="446.86" y="410.01" width="4.99" height="4.99" fill="#f1f0f0"/><rect x="446.86" y="418.36" width="4.99" height="4.99" fill="#f1f0f0"/><rect x="446.86" y="426.72" width="4.99" height="4.99" fill="#f1f0f0"/><rect x="446.86" y="435.08" width="4.99" height="4.99" fill="#f1f0f0"/><rect x="446.86" y="443.44" width="4.99" height="4.99" fill="#f1f0f0"/><rect x="446.86" y="451.8" width="4.99" height="4.99" fill="#f1f0f0"/><rect x="446.86" y="460.15" width="4.99" height="4.99" fill="#f1f0f0"/><rect x="446.86" y="468.51" width="4.99" height="4.99" fill="#f1f0f0"/><rect x="446.86" y="476.87" width="4.99" height="4.99" fill="#f1f0f0"/><rect x="446.86" y="485.23" width="4.99" height="4.99" fill="#f1f0f0"/><rect x="446.86" y="493.59" width="4.99" height="4.99" fill="#f1f0f0"/><rect x="438.94" y="343.14" width="4.99" height="4.99" fill="#f1f0f0"/><rect x="438.94" y="351.5" width="4.99" height="4.99" fill="#f1f0f0"/><rect x="438.94" y="359.86" width="4.99" height="4.99" fill="#f1f0f0"/><rect x="438.94" y="368.22" width="4.99" height="4.99" fill="#f1f0f0"/><rect x="438.94" y="376.57" width="4.99" height="4.99" fill="#f1f0f0"/><rect x="438.94" y="384.93" width="4.99" height="4.99" fill="#f1f0f0"/><rect x="438.94" y="393.29" width="4.99" height="4.99" fill="#f1f0f0"/><rect x="438.94" y="401.65" width="4.99" height="4.99" fill="#f1f0f0"/><rect x="438.94" y="410.01" width="4.99" height="4.99" fill="#f1f0f0"/><rect x="438.94" y="418.36" width="4.99" height="4.99" fill="#f1f0f0"/><rect x="438.94" y="426.72" width="4.99" height="4.99" fill="#f1f0f0"/><rect x="438.94" y="435.08" width="4.99" height="4.99" fill="#f1f0f0"/><rect x="438.94" y="443.44" width="4.99" height="4.99" fill="#f1f0f0"/><rect x="438.94" y="451.8" width="4.99" height="4.99" fill="#f1f0f0"/><rect x="438.94" y="460.15" width="4.99" height="4.99" fill="#f1f0f0"/><rect x="431.02" y="343.14" width="4.99" height="4.99" fill="#f1f0f0"/><rect x="431.02" y="351.5" width="4.99" height="4.99" fill="#f1f0f0"/><rect x="431.02" y="359.86" width="4.99" height="4.99" fill="#f1f0f0"/><rect x="431.02" y="368.22" width="4.99" height="4.99" fill="#f1f0f0"/><rect x="431.02" y="376.57" width="4.99" height="4.99" fill="#f1f0f0"/><rect x="431.02" y="384.93" width="4.99" height="4.99" fill="#f1f0f0"/><rect x="431.02" y="393.29" width="4.99" height="4.99" fill="#f1f0f0"/><rect x="431.02" y="401.65" width="4.99" height="4.99" fill="#f1f0f0"/><rect x="431.02" y="410.01" width="4.99" height="4.99" fill="#f1f0f0"/><rect x="431.02" y="418.36" width="4.99" height="4.99" fill="#f1f0f0"/><rect x="431.02" y="426.72" width="4.99" height="4.99" fill="#f1f0f0"/><rect x="431.02" y="435.08" width="4.99" height="4.99" fill="#f1f0f0"/><rect x="431.02" y="443.44" width="4.99" height="4.99" fill="#f1f0f0"/><rect x="423.11" y="343.14" width="4.99" height="4.99" fill="#f1f0f0"/><rect x="423.11" y="351.5" width="4.99" height="4.99" fill="#f1f0f0"/><rect x="423.11" y="359.86" width="4.99" height="4.99" fill="#f1f0f0"/><rect x="423.11" y="368.22" width="4.99" height="4.99" fill="#f1f0f0"/><rect x="423.11" y="376.57" width="4.99" height="4.99" fill="#f1f0f0"/><rect x="423.11" y="384.93" width="4.99" height="4.99" fill="#f1f0f0"/><rect x="423.11" y="393.29" width="4.99" height="4.99" fill="#f1f0f0"/><rect x="423.11" y="401.65" width="4.99" height="4.99" fill="#f1f0f0"/><rect x="423.11" y="410.01" width="4.99" height="4.99" fill="#f1f0f0"/><rect x="423.11" y="418.36" width="4.99" height="4.99" fill="#f1f0f0"/><rect x="423.11" y="426.72" width="4.99" height="4.99" fill="#f1f0f0"/><rect x="423.11" y="435.08" width="4.99" height="4.99" fill="#f1f0f0"/><rect x="885.29" y="340.65" width="4.99" height="4.99" fill="#f1f0f0"/><rect x="885.29" y="349.01" width="4.99" height="4.99" fill="#f1f0f0"/><rect x="885.29" y="357.37" width="4.99" height="4.99" fill="#f1f0f0"/><rect x="885.29" y="365.72" width="4.99" height="4.99" fill="#f1f0f0"/><rect x="885.29" y="374.08" width="4.99" height="4.99" fill="#f1f0f0"/><rect x="885.29" y="382.44" width="4.99" height="4.99" fill="#f1f0f0"/><rect x="885.29" y="390.8" width="4.99" height="4.99" fill="#f1f0f0"/><rect x="885.29" y="399.16" width="4.99" height="4.99" fill="#f1f0f0"/><rect x="885.29" y="407.51" width="4.99" height="4.99" fill="#f1f0f0"/><rect x="885.29" y="415.87" width="4.99" height="4.99" fill="#f1f0f0"/><rect x="885.29" y="424.23" width="4.99" height="4.99" fill="#f1f0f0"/><rect x="885.29" y="432.59" width="4.99" height="4.99" fill="#f1f0f0"/><rect x="885.29" y="440.94" width="4.99" height="4.99" fill="#f1f0f0"/><rect x="885.29" y="449.3" width="4.99" height="4.99" fill="#f1f0f0"/><rect x="885.29" y="457.66" width="4.99" height="4.99" fill="#f1f0f0"/><rect x="885.29" y="466.02" width="4.99" height="4.99" fill="#f1f0f0"/><rect x="885.29" y="474.38" width="4.99" height="4.99" fill="#f1f0f0"/><rect x="885.29" y="491.09" width="4.99" height="4.99" fill="#f1f0f0"/><rect x="885.29" y="499.45" width="4.99" height="4.99" fill="#f1f0f0"/><rect x="885.29" y="507.81" width="4.99" height="4.99" fill="#f1f0f0"/><rect x="885.29" y="516.17" width="4.99" height="4.99" fill="#f1f0f0"/><rect x="885.29" y="524.52" width="4.99" height="4.99" fill="#f1f0f0"/><rect x="877.37" y="340.65" width="4.99" height="4.99" fill="#f1f0f0"/><rect x="877.37" y="349.01" width="4.99" height="4.99" fill="#f1f0f0"/><rect x="877.37" y="357.37" width="4.99" height="4.99" fill="#f1f0f0"/><rect x="877.37" y="365.72" width="4.99" height="4.99" fill="#f1f0f0"/><rect x="877.37" y="374.08" width="4.99" height="4.99" fill="#f1f0f0"/><rect x="877.37" y="382.44" width="4.99" height="4.99" fill="#f1f0f0"/><rect x="877.37" y="390.8" width="4.99" height="4.99" fill="#f1f0f0"/><rect x="877.37" y="399.16" width="4.99" height="4.99" fill="#f1f0f0"/><rect x="877.37" y="407.51" width="4.99" height="4.99" fill="#f1f0f0"/><rect x="877.37" y="415.87" width="4.99" height="4.99" fill="#f1f0f0"/><rect x="877.37" y="424.23" width="4.99" height="4.99" fill="#f1f0f0"/><rect x="877.37" y="432.59" width="4.99" height="4.99" fill="#f1f0f0"/><rect x="877.37" y="440.94" width="4.99" height="4.99" fill="#f1f0f0"/><rect x="877.37" y="449.3" width="4.99" height="4.99" fill="#f1f0f0"/><rect x="877.37" y="457.66" width="4.99" height="4.99" fill="#f1f0f0"/><rect x="877.37" y="466.02" width="4.99" height="4.99" fill="#f1f0f0"/><rect x="877.37" y="516.17" width="4.99" height="4.99" fill="#f1f0f0"/><rect x="877.37" y="524.52" width="4.99" height="4.99" fill="#f1f0f0"/><rect x="869.45" y="340.65" width="4.99" height="4.99" fill="#f1f0f0"/><rect x="869.45" y="349.01" width="4.99" height="4.99" fill="#f1f0f0"/><rect x="869.45" y="357.37" width="4.99" height="4.99" fill="#f1f0f0"/><rect x="869.45" y="365.72" width="4.99" height="4.99" fill="#f1f0f0"/><rect x="869.45" y="374.08" width="4.99" height="4.99" fill="#f1f0f0"/><rect x="869.45" y="382.44" width="4.99" height="4.99" fill="#f1f0f0"/><rect x="869.45" y="390.8" width="4.99" height="4.99" fill="#f1f0f0"/><rect x="869.45" y="399.16" width="4.99" height="4.99" fill="#f1f0f0"/><rect x="869.45" y="407.51" width="4.99" height="4.99" fill="#f1f0f0"/><rect x="869.45" y="415.87" width="4.99" height="4.99" fill="#f1f0f0"/><rect x="869.45" y="424.23" width="4.99" height="4.99" fill="#f1f0f0"/><rect x="869.45" y="432.59" width="4.99" height="4.99" fill="#f1f0f0"/><rect x="869.45" y="440.94" width="4.99" height="4.99" fill="#f1f0f0"/><rect x="869.45" y="449.3" width="4.99" height="4.99" fill="#f1f0f0"/><rect x="869.45" y="457.66" width="4.99" height="4.99" fill="#f1f0f0"/><rect x="869.45" y="466.02" width="4.99" height="4.99" fill="#f1f0f0"/><rect x="869.45" y="482.73" width="4.99" height="4.99" fill="#f1f0f0"/><rect x="869.45" y="491.09" width="4.99" height="4.99" fill="#f1f0f0"/><rect x="869.45" y="499.45" width="4.99" height="4.99" fill="#f1f0f0"/><rect x="869.45" y="507.81" width="4.99" height="4.99" fill="#f1f0f0"/><rect x="869.45" y="524.52" width="4.99" height="4.99" fill="#f1f0f0"/><rect x="731.32" y="399.16" width="4.99" height="4.99" fill="#f1f0f0"/><rect x="731.32" y="407.51" width="4.99" height="4.99" fill="#f1f0f0"/><rect x="731.32" y="415.87" width="4.99" height="4.99" fill="#f1f0f0"/><rect x="731.32" y="424.23" width="4.99" height="4.99" fill="#f1f0f0"/><rect x="731.32" y="432.59" width="4.99" height="4.99" fill="#f1f0f0"/><rect x="731.32" y="440.94" width="4.99" height="4.99" fill="#f1f0f0"/><rect x="731.32" y="449.3" width="4.99" height="4.99" fill="#f1f0f0"/><rect x="731.32" y="457.66" width="4.99" height="4.99" fill="#f1f0f0"/><rect x="731.32" y="466.02" width="4.99" height="4.99" fill="#f1f0f0"/><rect x="731.32" y="474.38" width="4.99" height="4.99" fill="#f1f0f0"/><rect x="731.32" y="482.73" width="4.99" height="4.99" fill="#f1f0f0"/><rect x="731.32" y="491.09" width="4.99" height="4.99" fill="#f1f0f0"/><rect x="731.32" y="499.45" width="4.99" height="4.99" fill="#f1f0f0"/><rect x="731.32" y="516.17" width="4.99" height="4.99" fill="#f1f0f0"/><rect x="731.32" y="524.52" width="4.99" height="4.99" fill="#f1f0f0"/><rect x="731.32" y="532.88" width="4.99" height="4.99" fill="#f1f0f0"/><rect x="731.32" y="541.24" width="4.99" height="4.99" fill="#f1f0f0"/><rect x="731.32" y="557.96" width="4.99" height="4.99" fill="#f1f0f0"/><rect x="731.32" y="566.31" width="4.99" height="4.99" fill="#f1f0f0"/><rect x="731.32" y="574.67" width="4.99" height="4.99" fill="#f1f0f0"/><rect x="723.41" y="399.16" width="4.99" height="4.99" fill="#f1f0f0"/><rect x="723.41" y="407.51" width="4.99" height="4.99" fill="#f1f0f0"/><rect x="723.41" y="415.87" width="4.99" height="4.99" fill="#f1f0f0"/><rect x="723.41" y="424.23" width="4.99" height="4.99" fill="#f1f0f0"/><rect x="723.41" y="432.59" width="4.99" height="4.99" fill="#f1f0f0"/><rect x="723.41" y="440.94" width="4.99" height="4.99" fill="#f1f0f0"/><rect x="723.41" y="449.3" width="4.99" height="4.99" fill="#f1f0f0"/><rect x="723.41" y="457.66" width="4.99" height="4.99" fill="#f1f0f0"/><rect x="723.41" y="466.02" width="4.99" height="4.99" fill="#f1f0f0"/><rect x="723.41" y="474.38" width="4.99" height="4.99" fill="#f1f0f0"/><rect x="723.41" y="482.73" width="4.99" height="4.99" fill="#f1f0f0"/><rect x="723.41" y="491.09" width="4.99" height="4.99" fill="#f1f0f0"/><rect x="723.41" y="499.45" width="4.99" height="4.99" fill="#f1f0f0"/><rect x="723.41" y="524.52" width="4.99" height="4.99" fill="#f1f0f0"/><rect x="723.41" y="532.88" width="4.99" height="4.99" fill="#f1f0f0"/><rect x="723.41" y="549.6" width="4.99" height="4.99" fill="#f1f0f0"/><rect x="723.41" y="557.96" width="4.99" height="4.99" fill="#f1f0f0"/><rect x="723.41" y="566.31" width="4.99" height="4.99" fill="#f1f0f0"/><rect x="723.41" y="574.67" width="4.99" height="4.99" fill="#f1f0f0"/><rect x="715.49" y="399.16" width="4.99" height="4.99" fill="#f1f0f0"/><rect x="715.49" y="407.51" width="4.99" height="4.99" fill="#f1f0f0"/><rect x="715.49" y="415.87" width="4.99" height="4.99" fill="#f1f0f0"/><rect x="715.49" y="424.23" width="4.99" height="4.99" fill="#f1f0f0"/><rect x="715.49" y="432.59" width="4.99" height="4.99" fill="#f1f0f0"/><rect x="715.49" y="440.94" width="4.99" height="4.99" fill="#f1f0f0"/><rect x="715.49" y="449.3" width="4.99" height="4.99" fill="#f1f0f0"/><rect x="715.49" y="457.66" width="4.99" height="4.99" fill="#f1f0f0"/><rect x="715.49" y="466.02" width="4.99" height="4.99" fill="#f1f0f0"/><rect x="715.49" y="474.38" width="4.99" height="4.99" fill="#f1f0f0"/><rect x="715.49" y="482.73" width="4.99" height="4.99" fill="#f1f0f0"/><rect x="715.49" y="491.09" width="4.99" height="4.99" fill="#f1f0f0"/><rect x="715.49" y="499.45" width="4.99" height="4.99" fill="#f1f0f0"/><rect x="715.49" y="507.81" width="4.99" height="4.99" fill="#f1f0f0"/><rect x="715.49" y="524.52" width="4.99" height="4.99" fill="#f1f0f0"/><rect x="715.49" y="541.24" width="4.99" height="4.99" fill="#f1f0f0"/><rect x="715.49" y="549.6" width="4.99" height="4.99" fill="#f1f0f0"/><rect x="715.49" y="557.96" width="4.99" height="4.99" fill="#f1f0f0"/><rect x="715.49" y="566.31" width="4.99" height="4.99" fill="#f1f0f0"/><rect x="715.49" y="574.67" width="4.99" height="4.99" fill="#f1f0f0"/><rect x="763.58" y="446.81" width="4.99" height="4.99" fill="#f1f0f0"/><rect x="763.58" y="455.17" width="4.99" height="4.99" fill="#f1f0f0"/><rect x="763.58" y="463.53" width="4.99" height="4.99" fill="#f1f0f0"/><rect x="763.58" y="471.88" width="4.99" height="4.99" fill="#f1f0f0"/><rect x="763.58" y="480.24" width="4.99" height="4.99" fill="#f1f0f0"/><rect x="763.58" y="488.6" width="4.99" height="4.99" fill="#f1f0f0"/><rect x="763.58" y="513.67" width="4.99" height="4.99" fill="#f1f0f0"/><rect x="763.58" y="522.03" width="4.99" height="4.99" fill="#f1f0f0"/><rect x="763.58" y="530.39" width="4.99" height="4.99" fill="#f1f0f0"/><rect x="763.58" y="538.75" width="4.99" height="4.99" fill="#f1f0f0"/><rect x="763.58" y="547.11" width="4.99" height="4.99" fill="#f1f0f0"/><rect x="763.58" y="555.46" width="4.99" height="4.99" fill="#f1f0f0"/><rect x="763.58" y="563.82" width="4.99" height="4.99" fill="#f1f0f0"/><rect x="755.66" y="446.81" width="4.99" height="4.99" fill="#f1f0f0"/><rect x="755.66" y="455.17" width="4.99" height="4.99" fill="#f1f0f0"/><rect x="755.66" y="463.53" width="4.99" height="4.99" fill="#f1f0f0"/><rect x="755.66" y="471.88" width="4.99" height="4.99" fill="#f1f0f0"/><rect x="755.66" y="480.24" width="4.99" height="4.99" fill="#f1f0f0"/><rect x="755.66" y="488.6" width="4.99" height="4.99" fill="#f1f0f0"/><rect x="755.66" y="513.67" width="4.99" height="4.99" fill="#f1f0f0"/><rect x="755.66" y="522.03" width="4.99" height="4.99" fill="#f1f0f0"/><rect x="755.66" y="530.39" width="4.99" height="4.99" fill="#f1f0f0"/><rect x="755.66" y="538.75" width="4.99" height="4.99" fill="#f1f0f0"/><rect x="755.66" y="547.11" width="4.99" height="4.99" fill="#f1f0f0"/><rect x="755.66" y="555.46" width="4.99" height="4.99" fill="#f1f0f0"/><rect x="755.66" y="572.18" width="4.99" height="4.99" fill="#f1f0f0"/><rect x="492.61" y="410.01" width="4.99" height="4.99" fill="#f1f0f0"/><rect x="492.61" y="418.36" width="4.99" height="4.99" fill="#f1f0f0"/><rect x="492.61" y="426.72" width="4.99" height="4.99" fill="#f1f0f0"/><rect x="492.61" y="435.08" width="4.99" height="4.99" fill="#f1f0f0"/><rect x="492.61" y="443.44" width="4.99" height="4.99" fill="#f1f0f0"/><rect x="492.61" y="451.8" width="4.99" height="4.99" fill="#f1f0f0"/><rect x="492.61" y="460.15" width="4.99" height="4.99" fill="#f1f0f0"/><rect x="492.61" y="468.51" width="4.99" height="4.99" fill="#f1f0f0"/><rect x="492.61" y="476.87" width="4.99" height="4.99" fill="#f1f0f0"/><rect x="492.61" y="485.23" width="4.99" height="4.99" fill="#f1f0f0"/><rect x="492.61" y="493.59" width="4.99" height="4.99" fill="#f1f0f0"/><rect x="492.61" y="510.3" width="4.99" height="4.99" fill="#f1f0f0"/><rect x="492.61" y="518.66" width="4.99" height="4.99" fill="#f1f0f0"/><rect x="492.61" y="527.02" width="4.99" height="4.99" fill="#f1f0f0"/><rect x="492.61" y="535.38" width="4.99" height="4.99" fill="#f1f0f0"/><rect x="492.61" y="543.73" width="4.99" height="4.99" fill="#f1f0f0"/><rect x="492.61" y="552.09" width="4.99" height="4.99" fill="#f1f0f0"/><rect x="492.61" y="560.45" width="4.99" height="4.99" fill="#f1f0f0"/><rect x="492.61" y="568.81" width="4.99" height="4.99" fill="#f1f0f0"/><rect x="484.69" y="410.01" width="4.99" height="4.99" fill="#f1f0f0"/><rect x="484.69" y="418.36" width="4.99" height="4.99" fill="#f1f0f0"/><rect x="484.69" y="426.72" width="4.99" height="4.99" fill="#f1f0f0"/><rect x="484.69" y="435.08" width="4.99" height="4.99" fill="#f1f0f0"/><rect x="484.69" y="443.44" width="4.99" height="4.99" fill="#f1f0f0"/><rect x="484.69" y="451.8" width="4.99" height="4.99" fill="#f1f0f0"/><rect x="484.69" y="460.15" width="4.99" height="4.99" fill="#f1f0f0"/><rect x="484.69" y="468.51" width="4.99" height="4.99" fill="#f1f0f0"/><rect x="484.69" y="476.87" width="4.99" height="4.99" fill="#f1f0f0"/><rect x="484.69" y="485.23" width="4.99" height="4.99" fill="#f1f0f0"/><rect x="484.69" y="493.59" width="4.99" height="4.99" fill="#f1f0f0"/><rect x="484.69" y="501.94" width="4.99" height="4.99" fill="#f1f0f0"/><rect x="484.69" y="510.3" width="4.99" height="4.99" fill="#f1f0f0"/><rect x="484.69" y="518.66" width="4.99" height="4.99" fill="#f1f0f0"/><rect x="484.69" y="527.02" width="4.99" height="4.99" fill="#f1f0f0"/><rect x="484.69" y="535.38" width="4.99" height="4.99" fill="#f1f0f0"/><rect x="484.69" y="543.73" width="4.99" height="4.99" fill="#f1f0f0"/><rect x="484.69" y="552.09" width="4.99" height="4.99" fill="#f1f0f0"/><rect x="484.69" y="560.45" width="4.99" height="4.99" fill="#f1f0f0"/><rect x="484.69" y="568.81" width="4.99" height="4.99" fill="#f1f0f0"/><rect x="531.61" y="442.56" width="4.99" height="4.99" fill="#f1f0f0"/><rect x="531.61" y="450.92" width="4.99" height="4.99" fill="#f1f0f0"/><rect x="531.61" y="459.27" width="4.99" height="4.99" fill="#f1f0f0"/><rect x="531.61" y="467.63" width="4.99" height="4.99" fill="#f1f0f0"/><rect x="531.61" y="475.99" width="4.99" height="4.99" fill="#f1f0f0"/><rect x="531.61" y="484.35" width="4.99" height="4.99" fill="#f1f0f0"/><rect x="531.61" y="492.71" width="4.99" height="4.99" fill="#f1f0f0"/><rect x="531.61" y="501.06" width="4.99" height="4.99" fill="#f1f0f0"/><rect x="531.61" y="509.42" width="4.99" height="4.99" fill="#f1f0f0"/><rect x="531.61" y="517.78" width="4.99" height="4.99" fill="#f1f0f0"/><rect x="523.69" y="442.56" width="4.99" height="4.99" fill="#f1f0f0"/><rect x="523.69" y="450.92" width="4.99" height="4.99" fill="#f1f0f0"/><rect x="523.69" y="459.27" width="4.99" height="4.99" fill="#f1f0f0"/><rect x="523.69" y="467.63" width="4.99" height="4.99" fill="#f1f0f0"/><rect x="523.69" y="475.99" width="4.99" height="4.99" fill="#f1f0f0"/><rect x="523.69" y="484.35" width="4.99" height="4.99" fill="#f1f0f0"/><rect x="523.69" y="492.71" width="4.99" height="4.99" fill="#f1f0f0"/><rect x="523.69" y="501.06" width="4.99" height="4.99" fill="#f1f0f0"/><rect x="523.69" y="509.42" width="4.99" height="4.99" fill="#f1f0f0"/><rect x="567.43" y="125.37" width="8.37" height="466.15" fill="#e0e0e0"/><rect x="724.83" y="125.37" width="8.37" height="466.15" fill="#e0e0e0"/><rect x="882.24" y="125.37" width="8.37" height="466.15" fill="#e0e0e0"/><path d="M291.24,546.19h60.37a4.41,4.41,0,0,1,4.41,4.41V654.66a0,0,0,0,1,0,0H286.84a0,0,0,0,1,0,0V550.59A4.41,4.41,0,0,1,291.24,546.19Z" fill="#f1f0f0"/><rect x="286.84" y="560.85" width="69.18" height="7.77" fill="#e6e6e6"/><path d="M323.8,641.52h22a2.37,2.37,0,0,1,2.37,2.37v10.77a0,0,0,0,1,0,0H321.42a0,0,0,0,1,0,0V643.89A2.37,2.37,0,0,1,323.8,641.52Z" fill="#e0e0e0"/><path d="M348.24,782.05H329.07A3.08,3.08,0,0,1,326,779h0a3.08,3.08,0,0,1,3.07-3.07h19.17a3.08,3.08,0,0,1,3.08,3.07h0A3.08,3.08,0,0,1,348.24,782.05Z" transform="translate(0 -127.39)" fill="#e6e6e6"/><circle cx="644.6" cy="185.02" r="47.11" transform="translate(-25.26 25.66) rotate(-13.28)" fill="#e0e0e0"/><circle cx="644.6" cy="185.02" r="40.05" transform="translate(-21.31 -21.75) rotate(-9.22)" fill="#f1f0f0"/><polyline points="646.49 30.15 646.49 58.15 665.04 47.65" fill="#f1f0f0" stroke="#e0e0e0" stroke-linecap="round" stroke-linejoin="round" stroke-width="2"/><path d="M193.86,644.77c-3.6-5.93-9.52-.78-9.52-.78.84-11.36-9.61-19.13-9.61-19.13s12.15,0,13.84-11.58-4.23-6.2-9.8-6.28-11.37,16.17-4,25.31,5.37,24.74-11.57,39.74a33.11,33.11,0,0,0-8.84,13.8c1.28-13.78,2-33.2-2-46.16-6.89-22,6.23-28,10-39s-10-20.33-10-20.33,13-5.93,6.66-12.7-19.48-5.85-19.48,3,8.89,12.24,8.89,12.24S158.5,593.53,158.5,599s-10.16,17.37-10.16,17.37,4.66-10.15-4.66-10.58-12.28,11.85-8.47,17.35,10.17.85,10.17.85.74,11.85,2.91,19.05c1,3.17.5,15.59-.3,28.51a32.09,32.09,0,0,0-8.25-12.23c-16.94-15-18.9-30.61-11.57-39.74s1.52-25.39-4-25.31-11.49-5.31-9.79,6.27,13.83,11.59,13.83,11.59-10.45,7.77-9.6,19.13c0,0-5.93-5.15-9.53.77-6.42,10.59,8.47,17.15,11,11.94,0,0,31.59,22.36,24,54.55l1.77,2.61c-.23,2.6-.37,4.16-.37,4.16l2.47-1.06,2.81,4.15a94.9,94.9,0,0,0,.72,14l7.55-11.15c-7.62-32.18,24-54.54,24-54.54C185.39,661.92,200.29,655.35,193.86,644.77Z" transform="translate(0 -127.39)" fill="#e0e0e0"/><path d="M193.86,644.77c-3.6-5.93-9.52-.78-9.52-.78.84-11.36-9.61-19.13-9.61-19.13s12.15,0,13.84-11.58-4.23-6.2-9.8-6.28-11.37,16.17-4,25.31,5.37,24.74-11.57,39.74a33.11,33.11,0,0,0-8.84,13.8c1.28-13.78,2-33.2-2-46.16-6.89-22,6.23-28,10-39s-10-20.33-10-20.33,13-5.93,6.66-12.7-19.48-5.85-19.48,3,8.89,12.24,8.89,12.24S158.5,593.53,158.5,599s-10.16,17.37-10.16,17.37,4.66-10.15-4.66-10.58-12.28,11.85-8.47,17.35,10.17.85,10.17.85.74,11.85,2.91,19.05c1,3.17.5,15.59-.3,28.51a32.09,32.09,0,0,0-8.25-12.23c-16.94-15-18.9-30.61-11.57-39.74s1.52-25.39-4-25.31-11.49-5.31-9.79,6.27,13.83,11.59,13.83,11.59-10.45,7.77-9.6,19.13c0,0-5.93-5.15-9.53.77-6.42,10.59,8.47,17.15,11,11.94,0,0,31.59,22.36,24,54.55l1.77,2.61c-.23,2.6-.37,4.16-.37,4.16l2.47-1.06,2.81,4.15a94.9,94.9,0,0,0,.72,14l7.55-11.15c-7.62-32.18,24-54.54,24-54.54C185.39,661.92,200.29,655.35,193.86,644.77Z" transform="translate(0 -127.39)" fill="#e0e0e0" opacity="0.2" style="isolation:isolate"/><polygon points="187.68 654.66 115.33 654.66 107.53 575.45 195.49 575.45 187.68 654.66" fill="#e6e6e6"/><rect x="103.67" y="566.71" width="95.69" height="17.48" fill="#f1f0f0"/><ellipse id="_Path_" data-name="&lt;Path&gt;" cx="500" cy="722.57" rx="387.78" ry="22.65" fill="#f5c826"/><path d="M820.89,786.92c.31-2,7.31-50.34-6.71-67a15.19,15.19,0,0,0-11.65-5.73c-28.3-.66-32.17,22.07-32.21,22.3l3.34.52c.13-.82,3.48-20.06,28.79-19.44a11.77,11.77,0,0,1,9.14,4.53c13,15.52,6,63.86,6,64.34Z" transform="translate(0 -127.39)" fill="#f5c826"/><path d="M822.61,784.72l3.37-.11c0-.44-1.12-44.5,20.59-53.6,21.27-8.91,30.84,9.41,31.24,10.2l3-1.52c-.11-.22-11.34-22-35.57-11.79C821.42,737.89,822.55,782.81,822.61,784.72Z" transform="translate(0 -127.39)" fill="#f5c826"/><path d="M822.51,788.18c0-.7.2-70.38,13.79-90.76,13-19.57,34.08-10.35,35-9.95l1.4-3.08c-.25-.11-24.53-10.83-39.18,11.16-14.15,21.22-14.36,89.72-14.36,92.63Z" transform="translate(0 -127.39)" fill="#f5c826"/><path d="M798.48,715.84s12.36,4.56,8.69,15.31-42.76,28.46-42.76,28.46-16.36-15-1.33-39.4S798.15,708.14,798.48,715.84Z" transform="translate(0 -127.39)" fill="#5274b8"/><path d="M836.91,693.75s-8.77-.94-8.07-6.29,34.11-19.09,53.82,3.15c0,0-12.62,21.67-30.86,22S836.91,693.75,836.91,693.75Z" transform="translate(0 -127.39)" fill="#5274b8"/><path d="M845.92,729.45s-6.06-4.89.47-7.27,38.61-1.71,38.94,30.05c0,0-37.35,6.21-42-5.89S845.92,729.45,845.92,729.45Z" transform="translate(0 -127.39)" fill="#5274b8"/><path d="M798.48,715.84s12.36,4.56,8.69,15.31-42.76,28.46-42.76,28.46-16.36-15-1.33-39.4S798.15,708.14,798.48,715.84Z" transform="translate(0 -127.39)" fill="#f5c826"/><path d="M836.91,693.75s-8.77-.94-8.07-6.29,34.11-19.09,53.82,3.15c0,0-12.62,21.67-30.86,22S836.91,693.75,836.91,693.75Z" transform="translate(0 -127.39)" fill="#f5c826"/><path d="M845.92,729.45s-6.06-4.89.47-7.27,38.61-1.71,38.94,30.05c0,0-37.35,6.21-42-5.89S845.92,729.45,845.92,729.45Z" transform="translate(0 -127.39)" fill="#f5c826"/><polygon points="791.84 724.24 849.8 724.24 856.05 660.79 785.59 660.79 791.84 724.24" fill="#5274b8"/><polygon points="791.84 724.24 849.8 724.24 856.05 660.79 785.59 660.79 791.84 724.24" fill="#d9e02c"/><rect x="782.5" y="781.18" width="76.65" height="14" transform="translate(1641.64 1448.96) rotate(180)" fill="#5274b8"/><rect x="782.5" y="781.18" width="76.65" height="14" transform="translate(1641.64 1448.96) rotate(180)" fill="#f5c826"/><path d="M726.25,806.15l-57.63-5.67v-81H645.78v81l-57.85,5.69a11.21,11.21,0,0,0-10.13,11.16V826H736.37v-8.65A11.21,11.21,0,0,0,726.25,806.15Z" transform="translate(0 -127.39)" fill="#263238"/><path d="M726.25,806.15l-57.63-5.67v-81H645.78v81l-57.85,5.69a11.21,11.21,0,0,0-10.13,11.16V826H736.37v-8.65A11.21,11.21,0,0,0,726.25,806.15Z" transform="translate(0 -127.39)" fill="#fff" opacity="0.2" style="isolation:isolate"/><circle cx="583.9" cy="709.31" r="14.93" fill="#263238"/><circle cx="730.27" cy="709.31" r="14.93" fill="#263238"/><path d="M641.85,537.38h30.7a0,0,0,0,1,0,0v68a4.13,4.13,0,0,1-4.13,4.13H646a4.13,4.13,0,0,1-4.13-4.13v-68A0,0,0,0,1,641.85,537.38Z" fill="#263238"/><path d="M641.85,537.38h30.7a0,0,0,0,1,0,0v68a4.13,4.13,0,0,1-4.13,4.13H646a4.13,4.13,0,0,1-4.13-4.13v-68A0,0,0,0,1,641.85,537.38Z" fill="#fff" opacity="0.3" style="isolation:isolate"/><path d="M711.8,538.19s4.35,108-25.71,126.58h34.32S747,628,739.49,538.19Z" transform="translate(0 -127.39)" fill="#263238"/><path d="M711.8,538.19s4.35,108-25.71,126.58h34.32S747,628,739.49,538.19Z" transform="translate(0 -127.39)" fill="#fff" opacity="0.3" style="isolation:isolate"/><path d="M578.26,649.67H732.11a0,0,0,0,1,0,0V668a5,5,0,0,1-5,5H583.26a5,5,0,0,1-5-5V649.67A0,0,0,0,1,578.26,649.67Z" transform="translate(1310.37 1195.33) rotate(180)" fill="#263238"/><rect x="571.85" y="661.36" width="166.67" height="11.69" rx="2.01" transform="translate(1310.37 1207.02) rotate(180)" fill="#263238"/><rect x="571.85" y="661.36" width="166.67" height="11.69" rx="2.01" transform="translate(1310.37 1207.02) rotate(180)" fill="#fff" opacity="0.6" style="isolation:isolate"/><rect x="663.75" y="352.9" width="113.32" height="79.84" rx="14.58" fill="#263238"/><path d="M526.1,392l-11-28.94s4.7-4.35,1.48-8.77-23.48-16.85-27.18-14.67-11.88,10.43-7.45,15,24,12.2,24,12.2l9.7,38Z" transform="translate(0 -127.39)" fill="#e4897b"/><path d="M602.77,447.07s-49.94-10.27-55.36-12.72S521.89,373,521.89,373l-15.41,7.2s12.41,59.09,25.09,73.14,66.78,25.93,66.78,25.93Z" transform="translate(0 -127.39)" fill="#f5eb27"/><path d="M598.34,479.28l-.91-.21c-2.73-.62-11.26-2.63-21.41-5.59-16.47-4.79-37.21-12.1-44.46-20.12-12.66-14.05-25.08-73.14-25.08-73.14l15.4-7.19s20.11,58.88,25.54,61.32,55.35,12.71,55.35,12.71Z" transform="translate(0 -127.39)" opacity="0.2" style="isolation:isolate"/><polygon points="522.13 244.48 525.32 250.61 505.52 257.43 506.28 249.93 522.13 244.48" fill="#f5eb27"/><path d="M673.17,406.31s2.93,27.66-7.31,34.45-60.66-1.16-66.38-12.29,15.8-41.34,15.8-41.34Z" transform="translate(0 -127.39)" fill="#263238"/><polygon points="469.19 642.89 482.34 646.05 488.99 627.9 495.04 611.38 480.06 604.99 474.3 625.03 469.19 642.89" fill="#e4897b"/><polygon points="474.3 625.03 488.99 627.9 495.04 611.38 480.06 604.99 474.3 625.03" opacity="0.2" style="isolation:isolate"/><path d="M475.62,742.84l18.24,6.78S542.52,628,552.52,627.54,664.34,673.92,689.86,648s-11.38-88.48-11.38-88.48-61.38-8.76-66,5.1a97.21,97.21,0,0,0-2.6,12.44c-.7,4.24-1.18,7.8-1.18,7.8a.06.06,0,0,1,0,0c-1.9-.48-63.52-16.38-87.8,0C496.2,601.5,475.62,742.84,475.62,742.84Z" transform="translate(0 -127.39)" fill="#f5eb27"/><path d="M475.62,742.84l18.24,6.78S542.52,628,552.52,627.54,664.34,673.92,689.86,648s-11.38-88.48-11.38-88.48-61.38-8.76-66,5.1a97.21,97.21,0,0,0-2.6,12.44c-.7,4.24-1.18,7.8-1.18,7.8a.06.06,0,0,1,0,0c-1.9-.48-63.52-16.38-87.8,0C496.2,601.5,475.62,742.84,475.62,742.84Z" transform="translate(0 -127.39)" fill="#fff" opacity="0.6" style="isolation:isolate"/><polygon points="580.53 694.78 593.64 691.43 591.12 672.63 588.78 655.38 572.57 656.84 576.78 676.93 580.53 694.78" fill="#e4897b"/><polygon points="576.88 677.33 591.21 672.99 588.82 655.56 572.59 656.93 576.88 677.33" opacity="0.2" style="isolation:isolate"/><polygon points="501.39 615.48 474.83 606.45 473.69 617.34 493.84 624.46 501.39 615.48" fill="#f5eb27"/><path d="M645.78,654.2s-4.16.1-68.54-2.9c0,0,9.62,80.49,14.87,140.75l-19.25,3.28s-46-129-45.5-149.53,24-26.5,24-26.5S597.23,645.8,645.78,654.2Z" transform="translate(0 -127.39)" fill="#f5eb27"/><path d="M645.78,654.2s-4.16.1-68.54-2.9c0,0,9.62,80.49,14.87,140.75l-19.25,3.28s-46-129-45.5-149.53,24-26.5,24-26.5S597.23,645.8,645.78,654.2Z" transform="translate(0 -127.39)" fill="#fff" opacity="0.6" style="isolation:isolate"/><path d="M645.78,654.2s-4.16.1-68.54-2.9c0,0,9.62,80.49,14.87,140.75l-19.25,3.28s-46-129-45.5-149.53,24-26.5,24-26.5S597.23,645.8,645.78,654.2Z" transform="translate(0 -127.39)" opacity="0.1" style="isolation:isolate"/><polygon points="594.93 658.82 568.47 661.83 573.57 672.2 594.99 669.45 594.93 658.82" fill="#f5eb27"/><path d="M608.7,584.82l35.9,7.48s-19.84-11-34.72-15.28C609.18,581.26,608.7,584.82,608.7,584.82Z" transform="translate(0 -127.39)" opacity="0.1" style="isolation:isolate"/><polygon points="677 422.55 678.48 432.1 612.48 437.19 610.73 425.89 677 422.55" fill="#263238"/><polygon points="677 422.55 678.48 432.1 612.48 437.19 610.73 425.89 677 422.55" opacity="0.2" style="isolation:isolate"/><rect x="655.33" y="549.1" width="3.28" height="16.7" transform="translate(1367.49 917.4) rotate(174.13)" fill="#f5eb27"/><rect x="626.51" y="552.8" width="14.49" height="10.99" transform="translate(1302 947.41) rotate(176.32)" fill="#fff"/><rect x="614.8" y="550.89" width="3.28" height="16.7" transform="translate(1286.88 925.06) rotate(174.13)" fill="#f5eb27"/><rect x="655.33" y="549.1" width="3.28" height="16.7" transform="translate(1367.49 917.4) rotate(174.13)" fill="#fff" opacity="0.6" style="isolation:isolate"/><rect x="614.8" y="550.89" width="3.28" height="16.7" transform="translate(1286.88 925.06) rotate(174.13)" fill="#fff" opacity="0.6" style="isolation:isolate"/><path d="M601.57,446.16a120.11,120.11,0,0,0,38,4.19c21.18-1.08,46.5,9.2,46.5,9.2L677,549.94l-66.27,3.35S588.46,477.81,601.57,446.16Z" transform="translate(0 -127.39)" fill="#f5eb27"/><path d="M612.21,395.11s3.73-43.89,40.42-27.94c46,20,9.43,73.48-13.07,62.51S612.21,395.11,612.21,395.11Z" transform="translate(0 -127.39)" fill="#263238"/><path d="M622.5,452.81l1,24.8,8.23-11.67s-2.93,27.43-1.21,42.37c0,0,1.57-26.79,5.3-42.37l8.73,11.67L657.15,453S636.84,445.66,622.5,452.81Z" transform="translate(0 -127.39)" opacity="0.2" style="isolation:isolate"/><path d="M633.86,457.42l19-5.36c-11.69-8.05-5.8-26-5.8-26l-18.79,6.61a57.79,57.79,0,0,1,2,8c2,11.73-3.33,12.66-3.33,12.66Z" transform="translate(0 -127.39)" fill="#e4897b"/><path d="M628.25,432.63a57.79,57.79,0,0,1,2,8C639.26,437.06,647,426,647,426Z" transform="translate(0 -127.39)" opacity="0.2" style="isolation:isolate"/><path d="M640.51,376.38c-16.64-3.68-24,4.05-29,20.93-6.27,21.1-4.88,37.38,16.94,37.41C658.1,434.76,668.16,382.5,640.51,376.38Z" transform="translate(0 -127.39)" fill="#e4897b"/><path d="M622.49,398.76a36,36,0,0,1-6.37,5.83,4.69,4.69,0,0,0,4,2.86Z" transform="translate(0 -127.39)" fill="#de5954"/><path d="M633,399.65c-.34,1.37.13,2.65,1,2.87s1.92-.7,2.25-2.06-.13-2.64-1-2.86S633.31,398.29,633,399.65Z" transform="translate(0 -127.39)" fill="#263238"/><path d="M635.59,397.75l-2.68-1.88S633.77,398.72,635.59,397.75Z" transform="translate(0 -127.39)" fill="#263238"/><path d="M616.14,395.21c-.34,1.36.13,2.65,1,2.87s1.92-.7,2.25-2.06-.13-2.64-1-2.87S616.47,393.85,616.14,395.21Z" transform="translate(0 -127.39)" fill="#263238"/><path d="M618.75,393.31l-2.68-1.89S616.93,394.28,618.75,393.31Z" transform="translate(0 -127.39)" fill="#263238"/><path d="M635.69,388.2s4.81.42,6.66,4.11" transform="translate(0 -127.39)" fill="none" stroke="#263238" stroke-linecap="round" stroke-linejoin="round" stroke-width="0.72"/><path d="M623.74,384.82s-2.69-1.74-6.93-.1" transform="translate(0 -127.39)" fill="none" stroke="#263238" stroke-linecap="round" stroke-linejoin="round" stroke-width="0.72"/><path d="M652.5,408.47s-4.76-15.4-1.24-25.7c0,0-30-20.78-39,12.34,0,0,3.36-30.44,32.12-24.77s19.38,47.51,1.84,56.71C646.17,427.05,655.42,418.08,652.5,408.47Z" transform="translate(0 -127.39)" fill="#263238"/><path d="M649,411.38c.7-2.66,4.47-6.58,9.34-4.94,5,1.71,5.15,12.84-8.25,12.55C648.17,419,647.53,416.92,649,411.38Z" transform="translate(0 -127.39)" fill="#e4897b"/><path d="M617.11,413.77A42.88,42.88,0,0,1,618,420c.37,0,.73.08,1.1.1,5,.42,7.41-1,8.62-2.76a6.43,6.43,0,0,0,1-2.86,6.16,6.16,0,0,0,0-1.74c-2.77,1.35-7.44,1.31-9.93,1.19C617.76,413.85,617.11,413.77,617.11,413.77Z" transform="translate(0 -127.39)" fill="#263238"/><path d="M618.8,413.89l.31,1.82c4.68.38,8,0,9.61-1.27a6.16,6.16,0,0,0,0-1.74C626,414.05,621.29,414,618.8,413.89Z" transform="translate(0 -127.39)" fill="#fff"/><path d="M619.07,420.06c5,.42,7.41-1,8.62-2.76a16.31,16.31,0,0,0-5.62.63A6,6,0,0,0,619.07,420.06Z" transform="translate(0 -127.39)" fill="#de5954"/><path d="M640.58,377.72s.64,28.87,18,32.34S656.93,373,656.93,373s-25.79-16.85-43-5-1.73,27.13-1.73,27.13S615.85,373.67,640.58,377.72Z" transform="translate(0 -127.39)" fill="#263238"/><path d="M641.18,375.81s-6.18,18.25,6,27.83" transform="translate(0 -127.39)" fill="none" stroke="#263238" stroke-linecap="round" stroke-linejoin="round" stroke-width="0.5"/><path d="M663.6,416c-2.2,5.87-7.86,9.17-12.64,7.38s-6.86-8-4.65-13.88,7.86-9.17,12.64-7.38S665.81,410.12,663.6,416Z" transform="translate(0 -127.39)" fill="#f5eb27"/><path d="M663.6,416c-2.2,5.87-7.86,9.17-12.64,7.38s-6.86-8-4.65-13.88,7.86-9.17,12.64-7.38S665.81,410.12,663.6,416Z" transform="translate(0 -127.39)" opacity="0.4" style="isolation:isolate"/><path d="M658.09,406.37s7.17-32.14-8.93-40.57a49.06,49.06,0,0,1,5.44,1.06c2.08.61,14.94,13.64,8.44,42.53Z" transform="translate(0 -127.39)" fill="#f5eb27"/><path d="M658.09,406.37s7.17-32.14-8.93-40.57a49.06,49.06,0,0,1,5.44,1.06c2.08.61,14.94,13.64,8.44,42.53Z" transform="translate(0 -127.39)" opacity="0.2" style="isolation:isolate"/><path d="M627.9,424.76l-1.2-.18.32-2a36.74,36.74,0,0,0,25.39-5.39l1.18,1.62A37.84,37.84,0,0,1,627.9,424.76Z" transform="translate(0 -127.39)" fill="#f5eb27"/><g opacity="0.2" style="isolation:isolate"><path d="M627.9,424.76l-1.2-.18.32-2a36.74,36.74,0,0,0,25.39-5.39l1.18,1.62A37.84,37.84,0,0,1,627.9,424.76Z" transform="translate(0 -127.39)"/></g><path d="M662.93,415.19c-1.46,3.88-5.2,6.07-8.36,4.88s-4.54-5.29-3.08-9.17,5.2-6.07,8.36-4.88S664.38,411.31,662.93,415.19Z" transform="translate(0 -127.39)" fill="#f5eb27"/><path d="M626.11,425.42l-1.6-.21a2.18,2.18,0,0,1-1.88-2.44h0a2.17,2.17,0,0,1,2.44-1.88l1.61.21a2.17,2.17,0,0,1,1.87,2.44h0A2.18,2.18,0,0,1,626.11,425.42Z" transform="translate(0 -127.39)" fill="#f5eb27"/><path d="M626.11,425.42l-1.6-.21a2.18,2.18,0,0,1-1.88-2.44h0a2.17,2.17,0,0,1,2.44-1.88l1.61.21a2.17,2.17,0,0,1,1.87,2.44h0A2.18,2.18,0,0,1,626.11,425.42Z" transform="translate(0 -127.39)" opacity="0.4" style="isolation:isolate"/><polygon points="647.75 317.79 635.87 329.46 640.62 343.76 657.15 325.57 647.75 317.79" fill="#f5eb27"/><polygon points="630.57 320.23 632.49 329.21 626.33 341.92 622.5 325.41 630.57 320.23" fill="#f5eb27"/><path d="M645.21,455.31l6.9-25.26s-3.35-6.29-2.62-7.6,4.31-18.28,6.87-20.13,13.09,1.31,14.16,3-10.09,24.7-10.09,24.7l-4.07,27.37Z" transform="translate(0 -127.39)" fill="#e4897b"/><path d="M686.09,459.55c19,19.44-19.07,63.48-40.88,61.6s.54-81.73.54-81.73l14,2.3s-4.9,34.56-3.36,37.27S679.71,453,686.09,459.55Z" transform="translate(0 -127.39)" fill="#f5eb27"/><path d="M686.09,459.55c19,19.44-19.07,63.48-40.88,61.6s.54-81.73.54-81.73l14,2.3s-4.9,34.56-3.36,37.27S679.71,453,686.09,459.55Z" transform="translate(0 -127.39)" opacity="0.2" style="isolation:isolate"/><polygon points="644.6 309.48 642.53 316.07 661.99 317.79 661.99 312.03 644.6 309.48" fill="#f5eb27"/><rect x="605.65" y="361.7" width="11.05" height="18.04" rx="0.79" fill="#fff" opacity="0.6" style="isolation:isolate"/><rect x="606.31" y="362.89" width="8.97" height="12.26" opacity="0.2" style="isolation:isolate"/><rect x="610" y="357.35" width="1.98" height="7.23" fill="#263238"/><path d="M447.41,795.82a17.92,17.92,0,0,1,6.35-1.61h0s7.59-4.47,15.12-21.84l8.47,0a7,7,0,0,1,6.5,4.66,3.87,3.87,0,0,1,.24,1.17,46.23,46.23,0,0,1-.65,6.1c-.76,6.33-4.95,19.92-4.95,19.92l-1.43-.37,2.61-12.63c.86-4.29-3.65-.15-5.74,4.18s-5.3,8.69-14.65,6.55C448.39,799.35,444,797.78,447.41,795.82Z" transform="translate(0 -127.39)" fill="#d9e02c"/><path d="M470.41,767.82s-10.57,22.12-16.65,26.39c0,0,8.16,4.87,16.65-6,11-14,13.68-10.09,13.68-10.09a39.36,39.36,0,0,0-1.32-7.14C481.12,766.49,470.41,767.82,470.41,767.82Z" transform="translate(0 -127.39)" fill="#e4897b"/><path d="M563.85,848.53a18,18,0,0,1,5.79-3.07h0s6.31-6.15,9.51-24.81l8.21-2a7,7,0,0,1,7.43,3,4.28,4.28,0,0,1,.51,1.08,48,48,0,0,1,.81,6.08c.76,6.33-.08,20.52-.08,20.52h-1.48l-.46-12.89c-.18-4.38-3.58.72-4.58,5.42s-3.09,9.7-12.68,9.84C565.64,851.72,561,851.24,563.85,848.53Z" transform="translate(0 -127.39)" fill="#d9e02c"/><path d="M579.56,815.87s-5,24-9.92,29.59c0,0,9.08,2.79,14.76-9.75,7.36-16.21,10.9-13.05,10.9-13.05a39.8,39.8,0,0,0-3-6.62C589.64,812,579.56,815.87,579.56,815.87Z" transform="translate(0 -127.39)" fill="#e4897b"/><rect x="685.56" y="204.39" width="90.09" height="50.14" rx="5.07" fill="#f5eb27"/><polygon points="709.7 248.82 688.66 277.41 722.61 250.73 709.7 248.82" fill="#f5eb27"/><path d="M710.49,356.85a3,3,0,1,1-3-3A2.95,2.95,0,0,1,710.49,356.85Z" transform="translate(0 -127.39)" fill="#fff"/><path d="M725.87,356.85a3,3,0,1,1-3-3A2.95,2.95,0,0,1,725.87,356.85Z" transform="translate(0 -127.39)" fill="#fff"/><path d="M741.24,356.85a3,3,0,1,1-3-3A2.95,2.95,0,0,1,741.24,356.85Z" transform="translate(0 -127.39)" fill="#fff"/><path d="M756.62,356.85a2.95,2.95,0,1,1-3-3A2.95,2.95,0,0,1,756.62,356.85Z" transform="translate(0 -127.39)" fill="#fff"/><g opacity="0.5" style="isolation:isolate"><rect x="438.16" y="292.38" width="62.1" height="39.03" rx="1.38" transform="translate(204.01 -312.59) rotate(28.31)" fill="#f5eb27"/><rect x="438.16" y="292.38" width="62.1" height="39.03" rx="1.38" transform="translate(204.01 -312.59) rotate(28.31)" fill="#f5eb27" opacity="0.7" style="isolation:isolate"/><path d="M448.51,284.87,464.09,314a6.35,6.35,0,0,0,6.22,3.33l32.43-3.21-33,4.86a6.77,6.77,0,0,1-7.12-3.83Z" transform="translate(0 -127.39)" fill="#f5c826"/></g><path d="M410.68,279.45c.53-11.13,8.77-33.55,18.79-40.4s3.43,2.63,3.43,2.63,9.5-9.23,14.51-9,0,6.06,0,6.06,10.28-6.34,15-6.07,0,5.81,0,5.81,8.44-6.07,11.87-3.17-43.78,34-49.06,46.69S410.15,290.71,410.68,279.45Z" transform="translate(0 -127.39)" fill="#f5c826"/><path d="M410.68,279.45c.53-11.13,8.77-33.55,18.79-40.4s3.43,2.63,3.43,2.63,9.5-9.23,14.51-9,0,6.06,0,6.06,10.28-6.34,15-6.07,0,5.81,0,5.81,8.44-6.07,11.87-3.17-43.78,34-49.06,46.69S410.15,290.71,410.68,279.45Z" transform="translate(0 -127.39)" fill="#f5c826" opacity="0.4" style="isolation:isolate"/><path d="M451.23,277.81l6.31,4a.52.52,0,0,1-.32.95l-6.63-.52.57,5.09a.57.57,0,0,1-1,.44l-3.82-4.33Z" transform="translate(0 -127.39)" fill="#5274b8"/><path d="M451.23,277.81l6.31,4a.52.52,0,0,1-.32.95l-6.63-.52.57,5.09a.57.57,0,0,1-1,.44l-3.82-4.33Z" transform="translate(0 -127.39)" fill="#f5c826" opacity="0.4" style="isolation:isolate"/><path d="M362.75,252.76s8.7-6.07,21.89-2.11c0,0,3.79,17.41,14.16,23.21,5.69,3.19,19.64,2.91,30.67-.66,13.1-4.24,19.52-4.24,21.89.66,2.25,4.64-.26,10-10.28,12.4s-17.94,19.78-36.14,20-27.77-18-23.2-34A48.33,48.33,0,0,0,362.75,252.76Z" transform="translate(0 -127.39)" fill="#f5eb27"/><path d="M362.75,252.76s8.7-6.07,21.89-2.11c0,0,3.79,17.41,14.16,23.21,5.69,3.19,19.64,2.91,30.67-.66,13.1-4.24,19.52-4.24,21.89.66,2.25,4.64-.26,10-10.28,12.4s-17.94,19.78-36.14,20-27.77-18-23.2-34A48.33,48.33,0,0,0,362.75,252.76Z" transform="translate(0 -127.39)" fill="#f5eb27" opacity="0.5" style="isolation:isolate"/><path d="M446.35,277.16a.89.89,0,1,1-.89-.89A.89.89,0,0,1,446.35,277.16Z" transform="translate(0 -127.39)" fill="#263238"/><path d="M400.72,291.8c-10.75,2.94-34.61,2-44.23-5.39s1.45-4.08,1.45-4.08-11.71-6.18-13-11,5.77-1.87,5.77-1.87S341.5,261.6,340.29,257s5.52-1.79,5.52-1.79-8.37-6.15-6.67-10.31S385,276,398.68,277.15,411.6,288.84,400.72,291.8Z" transform="translate(0 -127.39)" fill="#5274b8"/><path d="M400.72,291.8c-10.75,2.94-34.61,2-44.23-5.39s1.45-4.08,1.45-4.08-11.71-6.18-13-11,5.77-1.87,5.77-1.87S341.5,261.6,340.29,257s5.52-1.79,5.52-1.79-8.37-6.15-6.67-10.31S385,276,398.68,277.15,411.6,288.84,400.72,291.8Z" transform="translate(0 -127.39)" fill="#f5c826"/><path d="M330.33,242.4c-.94-.33-1.89-.66-2.84-1" transform="translate(0 -127.39)" fill="none" stroke="#f5c826" stroke-linecap="round" stroke-linejoin="round" stroke-width="0.75"/><path d="M321.72,239.68a151.72,151.72,0,0,0-30-5.05c-19.44-1.35-49.93-3.28-61.84,16.1-10.86,17.66,7.82,47.79,14.45,64.18,8.12,20.08,17.77,44.91,8.18,66.16-20.53,45.48-111.17,19-135.79-24.29" transform="translate(0 -127.39)" fill="none" stroke="#f5c826" stroke-linecap="round" stroke-linejoin="round" stroke-width="0.75" stroke-dasharray="6.03 6.03"/><path d="M115.3,354.11c-.45-.9-.87-1.8-1.26-2.72" transform="translate(0 -127.39)" fill="none" stroke="#f5c826" stroke-linecap="round" stroke-linejoin="round" stroke-width="0.75"/><rect x="283.7" y="388.18" width="75.92" height="15.57" fill="#fff"/><rect x="283.7" y="388.18" width="75.92" height="15.57" opacity="0.1" style="isolation:isolate"/><rect x="283.7" y="388.18" width="31.97" height="15.57" opacity="0.1" style="isolation:isolate"/><polygon points="283.7 390.42 351.28 390.42 283.7 392.33 283.7 390.42" opacity="0.1" style="isolation:isolate"/><polygon points="359.62 393.12 301.04 394.57 359.62 394.57 359.62 393.12" opacity="0.1" style="isolation:isolate"/><polygon points="286.79 397.48 315.67 396.29 358.13 397.48 315.67 398.13 286.79 397.48" opacity="0.1" style="isolation:isolate"/><polygon points="283.7 400.77 333.74 400.77 283.7 401.96 283.7 400.77" opacity="0.1" style="isolation:isolate"/><polygon points="359.51 401.96 326.09 402.58 359.62 402.58 359.51 401.96" opacity="0.1" style="isolation:isolate"/><rect x="273.13" y="372.61" width="75.92" height="15.57" fill="#fff"/><rect x="273.13" y="372.61" width="75.92" height="15.57" opacity="0.1" style="isolation:isolate"/><rect x="273.13" y="372.61" width="31.97" height="15.57" opacity="0.1" style="isolation:isolate"/><polygon points="273.13 374.85 340.71 374.85 273.13 376.76 273.13 374.85" opacity="0.1" style="isolation:isolate"/><polygon points="349.05 377.55 290.47 379 349.05 379 349.05 377.55" opacity="0.1" style="isolation:isolate"/><polygon points="276.23 381.91 305.11 380.72 347.57 381.91 305.11 382.56 276.23 381.91" opacity="0.1" style="isolation:isolate"/><polygon points="273.13 385.2 323.17 385.2 273.13 386.39 273.13 385.2" opacity="0.1" style="isolation:isolate"/><polygon points="348.94 386.39 315.53 387.01 349.05 387.01 348.94 386.39" opacity="0.1" style="isolation:isolate"/><rect x="281.8" y="357.04" width="75.92" height="15.57" fill="#fff"/><rect x="281.8" y="357.04" width="75.92" height="15.57" opacity="0.1" style="isolation:isolate"/><rect x="281.8" y="357.04" width="31.97" height="15.57" opacity="0.1" style="isolation:isolate"/><polygon points="281.8 359.28 349.38 359.28 281.8 361.19 281.8 359.28" opacity="0.1" style="isolation:isolate"/><polygon points="357.72 361.98 299.14 363.44 357.72 363.44 357.72 361.98" opacity="0.1" style="isolation:isolate"/><polygon points="284.9 366.34 313.78 365.15 356.24 366.34 313.78 367 284.9 366.34" opacity="0.1" style="isolation:isolate"/><polygon points="281.8 369.63 331.84 369.63 281.8 370.82 281.8 369.63" opacity="0.1" style="isolation:isolate"/><polygon points="357.61 370.82 324.19 371.44 357.72 371.44 357.61 370.82" opacity="0.1" style="isolation:isolate"/><polygon points="408.29 403.42 410.27 395.96 491.37 395.96 528.72 399.69 530.14 403.42 408.29 403.42" fill="#263238"/><polygon points="491.37 395.96 491.37 403.42 408.29 403.42 410.27 395.96 491.37 395.96" opacity="0.4" style="isolation:isolate"/><path d="M475.08,487.64a6.39,6.39,0,0,1-6.44,7.14H344.4a8,8,0,0,1-7.78-7.14l-7.38-79.54a6.82,6.82,0,0,1,.16-2.32,6.35,6.35,0,0,1,6.28-4.82H459.92a8,8,0,0,1,7.78,7.14Z" transform="translate(0 -127.39)" fill="#263238"/><path d="M468.2,494.78H344.4a8,8,0,0,1-7.78-7.14l-7.38-79.54a6.82,6.82,0,0,1,.16-2.32H453.2a8,8,0,0,1,7.78,7.14l7.38,79.54A6.82,6.82,0,0,1,468.2,494.78Z" transform="translate(0 -127.39)" opacity="0.4" style="isolation:isolate"/><polygon points="382.84 318.61 408.54 318.61 401.69 392.19 442.34 398.3 442.34 403.42 356.74 403.42 356.74 398.3 374.27 392.19 382.84 318.61" fill="#263238"/><polygon points="408.54 318.61 389.5 402.25 374.27 401.8 382.84 318.61 408.54 318.61" fill="#fff" opacity="0.1" style="isolation:isolate"/><polygon points="408.43 724.24 396.18 724.24 374.16 417.75 390.42 417.75 408.43 724.24" fill="#263238"/><polygon points="408.43 724.24 396.18 724.24 375.24 432.97 374.15 418.24 390.42 418.24 391.3 432.97 408.43 724.24" fill="#fff" opacity="0.4" style="isolation:isolate"/><polygon points="391.3 432.24 375.24 432.24 374.15 418.24 390.42 418.24 391.3 432.24" opacity="0.2" style="isolation:isolate"/><polygon points="498.35 724.24 486.09 724.24 484.09 417.75 500.35 417.75 498.35 724.24" fill="#263238"/><polygon points="500.36 418.24 500.03 467.69 498.36 724.24 486.1 724.24 484.42 467.69 484.1 418.24 500.36 418.24" fill="#fff" opacity="0.5" style="isolation:isolate"/><polygon points="500.36 418.24 500.03 468.24 484.42 468.24 484.1 418.24 500.36 418.24" opacity="0.2" style="isolation:isolate"/><polygon points="628.43 724.24 616.17 724.24 594.16 417.75 610.41 417.75 628.43 724.24" fill="#263238"/><polygon points="628.43 724.24 616.17 724.24 595.24 432.97 594.15 418.24 610.41 418.24 611.29 432.97 628.43 724.24" fill="#fff" opacity="0.5" style="isolation:isolate"/><polygon points="611.29 432.24 595.24 432.24 594.15 418.24 610.41 418.24 611.29 432.24" opacity="0.2" style="isolation:isolate"/><polygon points="268.26 724.24 256.01 724.24 274.02 417.75 290.28 417.75 268.26 724.24" fill="#263238"/><polygon points="290.27 418.24 289.19 432.97 268.25 724.24 256.01 724.24 273.13 432.97 274.01 418.24 290.27 418.24" fill="#fff" opacity="0.5" style="isolation:isolate"/><polygon points="274.01 418.24 290.27 418.24 289.19 432.24 273.13 432.24 274.01 418.24" opacity="0.2" style="isolation:isolate"/><path d="M261.14,410.07H623.3a0,0,0,0,1,0,0v13.19a2.16,2.16,0,0,1-2.16,2.16H263.3a2.16,2.16,0,0,1-2.16-2.16V410.07A0,0,0,0,1,261.14,410.07Z" fill="#5274b8"/><path d="M261.14,410.07H623.3a0,0,0,0,1,0,0v13.19a2.16,2.16,0,0,1-2.16,2.16H263.3a2.16,2.16,0,0,1-2.16-2.16V410.07A0,0,0,0,1,261.14,410.07Z" fill="#fff" opacity="0.6" style="isolation:isolate"/><rect x="261.14" y="410.07" width="362.16" height="7.68" opacity="0.2" style="isolation:isolate"/><path d="M630.89,539.46H253.54a4.31,4.31,0,0,1-4.32-4.32h0a4.32,4.32,0,0,1,4.32-4.33H630.89a4.33,4.33,0,0,1,4.33,4.33h0A4.32,4.32,0,0,1,630.89,539.46Z" transform="translate(0 -127.39)" fill="#5274b8"/><path d="M630.89,539.46H253.54a4.31,4.31,0,0,1-4.32-4.32h0a4.32,4.32,0,0,1,4.32-4.33H630.89a4.33,4.33,0,0,1,4.33,4.33h0A4.32,4.32,0,0,1,630.89,539.46Z" transform="translate(0 -127.39)" fill="#fff" opacity="0.6" style="isolation:isolate"/><path d="M541.61,517.49l4.65-6.95a5,5,0,0,1,4.15-2.22h5.89a5.09,5.09,0,0,1,1.45.21l21,6.36a5,5,0,0,1,2.85,2.22l3,5.06Z" transform="translate(0 -127.39)" fill="#5274b8"/><path d="M584.58,522.17,554,518.85l-12.42-1.36,4.64-7a5,5,0,0,1,4.16-2.22h5.88a5.16,5.16,0,0,1,1.46.22l.46.14,20.5,6.22a5,5,0,0,1,2.86,2.22Z" transform="translate(0 -127.39)" opacity="0.2" style="isolation:isolate"/><path d="M584.58,522.17,554,518.85l4.18-10.18,20.5,6.22a5,5,0,0,1,2.86,2.22Z" transform="translate(0 -127.39)" opacity="0.2" style="isolation:isolate"/><path d="M599.1,530.15v.66H534.26l2.4-9.38a8.07,8.07,0,0,1,7.78-6H573.2a7.88,7.88,0,0,1,2.8.5l3.6,1.34,14.28,5.32A8.05,8.05,0,0,1,599.1,530.15Z" transform="translate(0 -127.39)" fill="#f5eb27"/><path d="M599.1,530.15v.66H572.48l1.42-10.14a4.26,4.26,0,0,1,5.7-3.38l14.28,5.32A8.05,8.05,0,0,1,599.1,530.15Z" transform="translate(0 -127.39)" opacity="0.2" style="isolation:isolate"/><path d="M576.62,523.92l8.47-25.42a1.89,1.89,0,0,1,2.65-1.07h0a1.88,1.88,0,0,1,1,2.15l-7.13,27.13S576.82,528.63,576.62,523.92Z" transform="translate(0 -127.39)" fill="#263238"/><polygon points="541.61 401.31 537.85 401.31 538.58 397.62 542.34 397.62 541.61 401.31" opacity="0.2" style="isolation:isolate"/><polygon points="547.22 401.17 543.46 401.17 544.18 397.48 547.94 397.48 547.22 401.17" opacity="0.2" style="isolation:isolate"/></svg>